<svg xmlns="http://www.w3.org/2000/svg" xmlns:xlink="http://www.w3.org/1999/xlink" contentStyleType="text/css" data-diagram-type="DESCRIPTION" height="902px" preserveAspectRatio="none" style="width:1286px;height:902px;" version="1.1" viewBox="0 0 1286 902" width="1286px" zoomAndPan="magnify"><defs/><g><!--cluster Interfaces_diagram--><g class="cluster" data-entity="Interfaces_diagram" data-source-line="4" data-uid="ent0002" id="cluster_Interfaces_diagram"><rect fill="none" height="812" rx="2.5" ry="2.5" style="stroke:#181818;stroke-width:1;" width="1273.25" x="7" y="7"/><rect fill="none" height="10" style="stroke:#181818;stroke-width:1;" width="15" x="1260.25" y="12"/><rect fill="none" height="2" style="stroke:#181818;stroke-width:1;" width="4" x="1258.25" y="14"/><rect fill="none" height="2" style="stroke:#181818;stroke-width:1;" width="4" x="1258.25" y="18"/><text fill="#000000" font-family="sans-serif" font-size="14" font-weight="bold" lengthAdjust="spacing" textLength="152.1611" x="567.5444" y="32.9951">Interfaces_diagram</text></g><!--entity frame--><g class="entity" data-entity="frame" data-source-line="6" data-uid="ent0003" id="entity_frame"><rect fill="#F1F1F1" height="46.2969" rx="2.5" ry="2.5" style="stroke:#181818;stroke-width:0.5;" width="81.5146" x="642.79" y="756.85"/><rect fill="#F1F1F1" height="10" style="stroke:#181818;stroke-width:0.5;" width="15" x="704.3046" y="761.85"/><rect fill="#F1F1F1" height="2" style="stroke:#181818;stroke-width:0.5;" width="4" x="702.3046" y="763.85"/><rect fill="#F1F1F1" height="2" style="stroke:#181818;stroke-width:0.5;" width="4" x="702.3046" y="767.85"/><text fill="#000000" font-family="sans-serif" font-size="14" lengthAdjust="spacing" textLength="41.5146" x="657.79" y="789.8451">frame</text></g><!--entity placement--><g class="entity" data-entity="placement" data-source-line="7" data-uid="ent0004" id="entity_placement"><ellipse cx="860.41" cy="729" fill="#F1F1F1" rx="8" ry="8" style="stroke:#181818;stroke-width:0.5;"/><text fill="#000000" font-family="sans-serif" font-size="14" lengthAdjust="spacing" textLength="74.2793" x="823.2704" y="758.9951">placement</text></g><!--entity Cylinder--><g class="entity" data-entity="Cylinder" data-source-line="8" data-uid="ent0007" id="entity_Cylinder"><rect fill="#F1F1F1" height="46.2969" rx="2.5" ry="2.5" style="stroke:#181818;stroke-width:0.5;" width="97.9688" x="811.43" y="509.85"/><rect fill="#F1F1F1" height="10" style="stroke:#181818;stroke-width:0.5;" width="15" x="889.3988" y="514.85"/><rect fill="#F1F1F1" height="2" style="stroke:#181818;stroke-width:0.5;" width="4" x="887.3988" y="516.85"/><rect fill="#F1F1F1" height="2" style="stroke:#181818;stroke-width:0.5;" width="4" x="887.3988" y="520.85"/><text fill="#000000" font-family="sans-serif" font-size="14" lengthAdjust="spacing" textLength="57.9688" x="826.43" y="542.8451">Cylinder</text></g><!--entity contact\nsensor--><g class="entity" data-entity="contact.nsensor" data-source-line="9" data-uid="ent0008" id="entity_contact.nsensor"><ellipse cx="683.55" cy="529" fill="#F1F1F1" rx="8" ry="8" style="stroke:#181818;stroke-width:0.5;"/><text fill="#000000" font-family="sans-serif" font-size="14" lengthAdjust="spacing" textLength="52.3906" x="657.3547" y="558.9951">contact</text><text fill="#000000" font-family="sans-serif" font-size="14" lengthAdjust="spacing" textLength="46.3955" x="657.3547" y="575.292">sensor</text></g><!--entity sensor--><g class="entity" data-entity="sensor" data-source-line="11" data-uid="ent0010" id="entity_sensor"><rect fill="#F1F1F1" height="46.2969" rx="2.5" ry="2.5" style="stroke:#181818;stroke-width:0.5;" width="86.3955" x="443.88" y="137.85"/><rect fill="#F1F1F1" height="10" style="stroke:#181818;stroke-width:0.5;" width="15" x="510.2755" y="142.85"/><rect fill="#F1F1F1" height="2" style="stroke:#181818;stroke-width:0.5;" width="4" x="508.2755" y="144.85"/><rect fill="#F1F1F1" height="2" style="stroke:#181818;stroke-width:0.5;" width="4" x="508.2755" y="148.85"/><text fill="#000000" font-family="sans-serif" font-size="14" lengthAdjust="spacing" textLength="46.3955" x="458.88" y="170.8451">sensor</text></g><!--entity sensor\nposition--><g class="entity" data-entity="sensor.nposition" data-source-line="12" data-uid="ent0011" id="entity_sensor.nposition"><ellipse cx="683.55" cy="161" fill="#F1F1F1" rx="8" ry="8" style="stroke:#181818;stroke-width:0.5;"/><text fill="#000000" font-family="sans-serif" font-size="14" lengthAdjust="spacing" textLength="46.3955" x="655.8234" y="190.9951">sensor</text><text fill="#000000" font-family="sans-serif" font-size="14" lengthAdjust="spacing" textLength="55.4531" x="655.8234" y="207.292">position</text></g><!--entity Cylinder\npower--><g class="entity" data-entity="Cylinder.npower" data-source-line="17" data-uid="ent0014" id="entity_Cylinder.npower"><ellipse cx="1018.7" cy="533" fill="#F1F1F1" rx="8" ry="8" style="stroke:#181818;stroke-width:0.5;"/><text fill="#000000" font-family="sans-serif" font-size="14" lengthAdjust="spacing" textLength="57.9688" x="989.7156" y="562.9951">Cylinder</text><text fill="#000000" font-family="sans-serif" font-size="14" lengthAdjust="spacing" textLength="43.2715" x="989.7156" y="579.292">power</text></g><!--entity room--><g class="entity" data-entity="room" data-source-line="17" data-uid="ent0015" id="entity_room"><ellipse cx="1195.5" cy="533" fill="#F1F1F1" rx="8" ry="8" style="stroke:#181818;stroke-width:0.5;"/><text fill="#000000" font-family="sans-serif" font-size="14" lengthAdjust="spacing" textLength="36.5244" x="1177.2378" y="562.9951">room</text></g><!--entity Haul_Off\npower--><g class="entity" data-entity="Haul_Off.npower" data-source-line="18" data-uid="ent0017" id="entity_Haul_Off.npower"><ellipse cx="1018.7" cy="161" fill="#F1F1F1" rx="8" ry="8" style="stroke:#181818;stroke-width:0.5;"/><text fill="#000000" font-family="sans-serif" font-size="14" lengthAdjust="spacing" textLength="59.7461" x="988.827" y="190.9951">Haul_Off</text><text fill="#000000" font-family="sans-serif" font-size="14" lengthAdjust="spacing" textLength="43.2715" x="988.827" y="207.292">power</text></g><!--entity Haul_Off--><g class="entity" data-entity="Haul_Off" data-source-line="23" data-uid="ent0022" id="entity_Haul_Off"><rect fill="#F1F1F1" height="46.2969" rx="2.5" ry="2.5" style="stroke:#181818;stroke-width:0.5;" width="99.7461" x="810.54" y="148.85"/><rect fill="#F1F1F1" height="10" style="stroke:#181818;stroke-width:0.5;" width="15" x="890.2861" y="153.85"/><rect fill="#F1F1F1" height="2" style="stroke:#181818;stroke-width:0.5;" width="4" x="888.2861" y="155.85"/><rect fill="#F1F1F1" height="2" style="stroke:#181818;stroke-width:0.5;" width="4" x="888.2861" y="159.85"/><text fill="#000000" font-family="sans-serif" font-size="14" lengthAdjust="spacing" textLength="59.7461" x="825.54" y="181.8451">Haul_Off</text></g><!--entity Thermoplastic\nposition--><g class="entity" data-entity="Thermoplastic.nposition" data-source-line="25" data-uid="ent0024" id="entity_Thermoplastic.nposition"><ellipse cx="683.55" cy="323" fill="#F1F1F1" rx="8" ry="8" style="stroke:#181818;stroke-width:0.5;"/><text fill="#000000" font-family="sans-serif" font-size="14" lengthAdjust="spacing" textLength="99.7227" x="633.6887" y="352.9951">Thermoplastic</text><text fill="#000000" font-family="sans-serif" font-size="14" lengthAdjust="spacing" textLength="55.4531" x="633.6887" y="369.292">position</text></g><!--entity Thermoplastic--><g class="entity" data-entity="Thermoplastic" data-source-line="29" data-uid="ent0028" id="entity_Thermoplastic"><rect fill="#F1F1F1" height="46.2969" rx="2.5" ry="2.5" style="stroke:#181818;stroke-width:0.5;" width="139.7227" x="417.22" y="638.85"/><rect fill="#F1F1F1" height="10" style="stroke:#181818;stroke-width:0.5;" width="15" x="536.9427" y="643.85"/><rect fill="#F1F1F1" height="2" style="stroke:#181818;stroke-width:0.5;" width="4" x="534.9427" y="645.85"/><rect fill="#F1F1F1" height="2" style="stroke:#181818;stroke-width:0.5;" width="4" x="534.9427" y="649.85"/><text fill="#000000" font-family="sans-serif" font-size="14" lengthAdjust="spacing" textLength="99.7227" x="432.22" y="671.8451">Thermoplastic</text></g><!--entity shape--><g class="entity" data-entity="shape" data-source-line="30" data-uid="ent0029" id="entity_shape"><ellipse cx="320.53" cy="655" fill="#F1F1F1" rx="8" ry="8" style="stroke:#181818;stroke-width:0.5;"/><text fill="#000000" font-family="sans-serif" font-size="14" lengthAdjust="spacing" textLength="42.2461" x="299.407" y="684.9951">shape</text></g><!--entity press--><g class="entity" data-entity="press" data-source-line="32" data-uid="ent0031" id="entity_press"><rect fill="#F1F1F1" height="46.2969" rx="2.5" ry="2.5" style="stroke:#181818;stroke-width:0.5;" width="77.8438" x="448.16" y="505.85"/><rect fill="#F1F1F1" height="10" style="stroke:#181818;stroke-width:0.5;" width="15" x="506.0038" y="510.85"/><rect fill="#F1F1F1" height="2" style="stroke:#181818;stroke-width:0.5;" width="4" x="504.0038" y="512.85"/><rect fill="#F1F1F1" height="2" style="stroke:#181818;stroke-width:0.5;" width="4" x="504.0038" y="516.85"/><text fill="#000000" font-family="sans-serif" font-size="14" lengthAdjust="spacing" textLength="37.8438" x="463.16" y="538.8451">press</text></g><!--entity Infrared_lamp--><g class="entity" data-entity="Infrared_lamp" data-source-line="38" data-uid="ent0036" id="entity_Infrared_lamp"><rect fill="#F1F1F1" height="46.2969" rx="2.5" ry="2.5" style="stroke:#181818;stroke-width:0.5;" width="137.5146" x="1126.74" y="618.85"/><rect fill="#F1F1F1" height="10" style="stroke:#181818;stroke-width:0.5;" width="15" x="1244.2546" y="623.85"/><rect fill="#F1F1F1" height="2" style="stroke:#181818;stroke-width:0.5;" width="4" x="1242.2546" y="625.85"/><rect fill="#F1F1F1" height="2" style="stroke:#181818;stroke-width:0.5;" width="4" x="1242.2546" y="629.85"/><text fill="#000000" font-family="sans-serif" font-size="14" lengthAdjust="spacing" textLength="97.5146" x="1141.74" y="651.8451">Infrared_lamp</text></g><!--entity Extruder--><g class="entity" data-entity="Extruder" data-source-line="42" data-uid="ent0039" id="entity_Extruder"><rect fill="#F1F1F1" height="46.2969" rx="2.5" ry="2.5" style="stroke:#181818;stroke-width:0.5;" width="100.5049" x="810.16" y="594.85"/><rect fill="#F1F1F1" height="10" style="stroke:#181818;stroke-width:0.5;" width="15" x="890.6649" y="599.85"/><rect fill="#F1F1F1" height="2" style="stroke:#181818;stroke-width:0.5;" width="4" x="888.6649" y="601.85"/><rect fill="#F1F1F1" height="2" style="stroke:#181818;stroke-width:0.5;" width="4" x="888.6649" y="605.85"/><text fill="#000000" font-family="sans-serif" font-size="14" lengthAdjust="spacing" textLength="60.5049" x="825.16" y="627.8451">Extruder</text></g><!--entity Safety_Alarm--><g class="entity" data-entity="Safety_Alarm" data-source-line="46" data-uid="ent0042" id="entity_Safety_Alarm"><rect fill="#F1F1F1" height="46.2969" rx="2.5" ry="2.5" style="stroke:#181818;stroke-width:0.5;" width="133.2217" x="616.94" y="402.85"/><rect fill="#F1F1F1" height="10" style="stroke:#181818;stroke-width:0.5;" width="15" x="730.1617" y="407.85"/><rect fill="#F1F1F1" height="2" style="stroke:#181818;stroke-width:0.5;" width="4" x="728.1617" y="409.85"/><rect fill="#F1F1F1" height="2" style="stroke:#181818;stroke-width:0.5;" width="4" x="728.1617" y="413.85"/><text fill="#000000" font-family="sans-serif" font-size="14" lengthAdjust="spacing" textLength="93.2217" x="631.94" y="435.8451">Safety_Alarm</text></g><!--entity Rails--><g class="entity" data-entity="Rails" data-source-line="52" data-uid="ent0047" id="entity_Rails"><rect fill="#F1F1F1" height="46.2969" rx="2.5" ry="2.5" style="stroke:#181818;stroke-width:0.5;" width="73.3799" x="283.84" y="343.85"/><rect fill="#F1F1F1" height="10" style="stroke:#181818;stroke-width:0.5;" width="15" x="337.2199" y="348.85"/><rect fill="#F1F1F1" height="2" style="stroke:#181818;stroke-width:0.5;" width="4" x="335.2199" y="350.85"/><rect fill="#F1F1F1" height="2" style="stroke:#181818;stroke-width:0.5;" width="4" x="335.2199" y="354.85"/><text fill="#000000" font-family="sans-serif" font-size="14" lengthAdjust="spacing" textLength="33.3799" x="298.84" y="376.8451">Rails</text></g><!--entity Synchronization_Board--><g class="entity" data-entity="Synchronization_Board" data-source-line="56" data-uid="ent0050" id="entity_Synchronization_Board"><rect fill="#F1F1F1" height="46.2969" rx="2.5" ry="2.5" style="stroke:#181818;stroke-width:0.5;" width="200.8359" x="23" y="373.85"/><rect fill="#F1F1F1" height="10" style="stroke:#181818;stroke-width:0.5;" width="15" x="203.8359" y="378.85"/><rect fill="#F1F1F1" height="2" style="stroke:#181818;stroke-width:0.5;" width="4" x="201.8359" y="380.85"/><rect fill="#F1F1F1" height="2" style="stroke:#181818;stroke-width:0.5;" width="4" x="201.8359" y="384.85"/><text fill="#000000" font-family="sans-serif" font-size="14" lengthAdjust="spacing" textLength="160.8359" x="38" y="406.8451">Synchronization_Board</text></g><!--entity building--><g class="entity" data-entity="building" data-source-line="66" data-uid="ent0057" id="entity_building"><rect fill="#F1F1F1" height="46.2969" rx="2.5" ry="2.5" style="stroke:#181818;stroke-width:0.5;" width="96.0752" x="970.66" y="837.85"/><rect fill="#F1F1F1" height="10" style="stroke:#181818;stroke-width:0.5;" width="15" x="1046.7352" y="842.85"/><rect fill="#F1F1F1" height="2" style="stroke:#181818;stroke-width:0.5;" width="4" x="1044.7352" y="844.85"/><rect fill="#F1F1F1" height="2" style="stroke:#181818;stroke-width:0.5;" width="4" x="1044.7352" y="848.85"/><text fill="#000000" font-family="sans-serif" font-size="14" lengthAdjust="spacing" textLength="56.0752" x="985.66" y="870.8451">building</text></g><!--entity energy--><g class="entity" data-entity="energy" data-source-line="68" data-uid="ent0058" id="entity_energy"><ellipse cx="1195.5" cy="853" fill="#F1F1F1" rx="8" ry="8" style="stroke:#181818;stroke-width:0.5;"/><text fill="#000000" font-family="sans-serif" font-size="14" lengthAdjust="spacing" textLength="49.0273" x="1170.9863" y="882.9951">energy</text></g><!--entity location--><g class="entity" data-entity="location" data-source-line="69" data-uid="ent0061" id="entity_location"><ellipse cx="860.41" cy="864" fill="#F1F1F1" rx="8" ry="8" style="stroke:#181818;stroke-width:0.5;"/><text fill="#000000" font-family="sans-serif" font-size="14" lengthAdjust="spacing" textLength="55.5488" x="832.6356" y="893.9951">location</text></g><!--link frame to placement--><g class="link" data-entity-1="frame" data-entity-2="placement" data-source-line="7" data-uid="lnk6" id="link_frame_placement"><path d="M724.67,768.3 C766.41,756.12 828.75,737.94 851.08,731.43" fill="none" id="frame-placement" style="stroke:#181818;stroke-width:1;"/></g><!--link contact\nsensor to Cylinder--><g class="link" data-entity-1="contact.nsensor" data-entity-2="Cylinder" data-source-line="9" data-uid="lnk9" id="link_contact.nsensor_Cylinder"><path d="M692.52,529.18 C713.16,529.65 769.68,530.95 811.25,531.9" fill="none" id="contact\nsensor-Cylinder" style="stroke:#181818;stroke-width:1;"/></g><!--link sensor to sensor\nposition--><g class="link" data-entity-1="sensor" data-entity-2="sensor.nposition" data-source-line="12" data-uid="lnk12" id="link_sensor_sensor.nposition"><path d="M530.75,161 C578.16,161 645.15,161 668.84,161" fill="none" id="sensor-to-sensor\nposition" style="stroke:#181818;stroke-width:1;"/><polygon fill="#181818" points="674.84,161,665.84,157,669.84,161,665.84,165,674.84,161" style="stroke:#181818;stroke-width:1;"/></g><!--link Cylinder to placement--><g class="link" data-entity-1="Cylinder" data-entity-2="placement" data-source-line="14" data-uid="lnk13" id="link_Cylinder_placement"><path d="M815.56,556.44 C801.6,566.19 787.85,578.92 780.16,594.5 C770.92,613.23 772.58,622.03 780.16,641.5 C794.66,678.77 828.4005,706.2945 846.2505,719.1445" fill="none" id="Cylinder-to-placement" style="stroke:#181818;stroke-width:1;"/><polygon fill="#181818" points="851.12,722.65,846.1528,714.1455,847.0621,719.7288,841.4788,720.6381,851.12,722.65" style="stroke:#181818;stroke-width:1;"/></g><!--link Cylinder\npower to room--><g class="link" data-entity-1="Cylinder.npower" data-entity-2="room" data-source-line="17" data-uid="lnk16" id="link_Cylinder.npower_room"><path d="M1027.67,533 C1056.65,533 1156.37,533 1186.08,533" fill="none" id="Cylinder\npower-room" style="stroke:#181818;stroke-width:1;"/></g><!--link Haul_Off\npower to room--><g class="link" data-entity-1="Haul_Off.npower" data-entity-2="room" data-source-line="18" data-uid="lnk18" id="link_Haul_Off.npower_room"><path d="M1026.01,169.56 C1035.56,182.75 1053.94,209.03 1066.74,233 C1125.69,343.35 1178.07,486.75 1191.29,523.9" fill="none" id="Haul_Off\npower-room" style="stroke:#181818;stroke-width:1;"/></g><!--reverse link placement to room--><g class="link" data-entity-1="placement" data-entity-2="room" data-source-line="20" data-uid="lnk20" id="link_placement_room"><path d="M875.2383,722.4427 C903.5983,708.9527 992.63,665.8 1066.74,621 C1113.3,592.86 1165.93,554.34 1186.06,539.34" fill="none" id="placement-backto-room" style="stroke:#181818;stroke-width:1;"/><polygon fill="#181818" points="869.82,725.02,879.6656,724.7662,874.3352,722.8722,876.2292,717.5419,869.82,725.02" style="stroke:#181818;stroke-width:1;"/></g><!--link Cylinder to Cylinder\npower--><g class="link" data-entity-1="Cylinder" data-entity-2="Cylinder.npower" data-source-line="21" data-uid="lnk21" id="link_Cylinder_Cylinder.npower"><path d="M909.58,533 C945.64,533 985.73,533 1003.87,533" fill="none" id="Cylinder-to-Cylinder\npower" style="stroke:#181818;stroke-width:1;"/><polygon fill="#181818" points="1009.87,533,1000.87,529,1004.87,533,1000.87,537,1009.87,533" style="stroke:#181818;stroke-width:1;"/></g><!--link sensor\nposition to Haul_Off--><g class="link" data-entity-1="sensor.nposition" data-entity-2="Haul_Off" data-source-line="24" data-uid="lnk23" id="link_sensor.nposition_Haul_Off"><path d="M692.52,161.5 C713.03,162.79 768.95,166.31 810.44,168.92" fill="none" id="sensor\nposition-Haul_Off" style="stroke:#181818;stroke-width:1;"/></g><!--link Thermoplastic\nposition to Haul_Off--><g class="link" data-entity-1="Thermoplastic.nposition" data-entity-2="Haul_Off" data-source-line="25" data-uid="lnk25" id="link_Thermoplastic.nposition_Haul_Off"><path d="M692.52,316.12 C716.9,295.06 791.34,230.78 832.07,195.61" fill="none" id="Thermoplastic\nposition-Haul_Off" style="stroke:#181818;stroke-width:1;"/></g><!--link Haul_Off to placement--><g class="link" data-entity-1="Haul_Off" data-entity-2="placement" data-source-line="26" data-uid="lnk26" id="link_Haul_Off_placement"><path d="M825.88,195.32 C808.65,209.11 789.53,228.22 780.16,250.5 C746.47,330.59 748.65,560.53 780.16,641.5 C794.66,678.77 828.4005,706.2945 846.2505,719.1445" fill="none" id="Haul_Off-to-placement" style="stroke:#181818;stroke-width:1;"/><polygon fill="#181818" points="851.12,722.65,846.1528,714.1455,847.0621,719.7288,841.4788,720.6381,851.12,722.65" style="stroke:#181818;stroke-width:1;"/></g><!--link Haul_Off to Haul_Off\npower--><g class="link" data-entity-1="Haul_Off" data-entity-2="Haul_Off.npower" data-source-line="27" data-uid="lnk27" id="link_Haul_Off_Haul_Off.npower"><path d="M910.43,168.55 C946.42,166.02 986.045,163.2339 1003.975,161.9639" fill="none" id="Haul_Off-to-Haul_Off\npower" style="stroke:#181818;stroke-width:1;"/><polygon fill="#181818" points="1009.96,161.54,1000.6999,158.1859,1004.9725,161.8933,1001.2651,166.1659,1009.96,161.54" style="stroke:#181818;stroke-width:1;"/></g><!--link shape to Thermoplastic--><g class="link" data-entity-1="shape" data-entity-2="Thermoplastic" data-source-line="30" data-uid="lnk30" id="link_shape_Thermoplastic"><path d="M329.91,655.36 C346.09,656.04 383,657.62 416.88,659.06" fill="none" id="shape-Thermoplastic" style="stroke:#181818;stroke-width:1;"/></g><!--reverse link shape to press--><g class="link" data-entity-1="shape" data-entity-2="press" data-source-line="33" data-uid="lnk33" id="link_shape_press"><path d="M334.6739,644.9324 C357.4639,627.4824 416.66,582.16 455.29,552.57" fill="none" id="shape-backto-press" style="stroke:#181818;stroke-width:1;"/><polygon fill="#181818" points="329.91,648.58,339.4876,646.2845,333.8799,645.5403,334.6241,639.9326,329.91,648.58" style="stroke:#181818;stroke-width:1;"/></g><!--link Thermoplastic to Thermoplastic\nposition--><g class="link" data-entity-1="Thermoplastic" data-entity-2="Thermoplastic.nposition" data-source-line="35" data-uid="lnk34" id="link_Thermoplastic_Thermoplastic.nposition"><path d="M509.13,638.48 C524.14,620.71 543.9,595.15 556.94,570 C596.71,493.25 570.76,458.07 616.94,385 C632.85,359.83 656.3855,341.3404 669.9955,331.6904" fill="none" id="Thermoplastic-to-Thermoplastic\nposition" style="stroke:#181818;stroke-width:1;"/><polygon fill="#181818" points="674.89,328.22,665.2346,330.1626,670.8112,331.112,669.8618,336.6886,674.89,328.22" style="stroke:#181818;stroke-width:1;"/></g><!--link press to contact\nsensor--><g class="link" data-entity-1="press" data-entity-2="contact.nsensor" data-source-line="36" data-uid="lnk35" id="link_press_contact.nsensor"><path d="M526.5,529 C573.65,529 644.37,529 668.81,529" fill="none" id="press-to-contact\nsensor" style="stroke:#181818;stroke-width:1;"/><polygon fill="#181818" points="674.81,529,665.81,525,669.81,529,665.81,533,674.81,529" style="stroke:#181818;stroke-width:1;"/></g><!--link Infrared_lamp to room--><g class="link" data-entity-1="Infrared_lamp" data-entity-2="room" data-source-line="39" data-uid="lnk37" id="link_Infrared_lamp_room"><path d="M1195.5,618.58 C1195.5,593.17 1195.5,573.77 1195.5,548.36" fill="none" id="Infrared_lamp-to-room" style="stroke:#181818;stroke-width:1;"/><polygon fill="#181818" points="1195.5,542.36,1191.5,551.36,1195.5,547.36,1199.5,551.36,1195.5,542.36" style="stroke:#181818;stroke-width:1;"/></g><!--link Thermoplastic to Infrared_lamp--><g class="link" data-entity-1="Thermoplastic" data-entity-2="Infrared_lamp" data-source-line="40" data-uid="lnk38" id="link_Thermoplastic_Infrared_lamp"><path d="M557.27,662.63 C640.99,663.13 786.19,663.17 910.66,659 C984.42,656.53 1062.8448,651.5718 1120.3148,647.5218" fill="none" id="Thermoplastic-to-Infrared_lamp" style="stroke:#181818;stroke-width:1;"/><polygon fill="#181818" points="1126.3,647.1,1117.0411,643.7426,1121.3124,647.4515,1117.6035,651.7228,1126.3,647.1" style="stroke:#181818;stroke-width:1;"/></g><!--link Extruder to room--><g class="link" data-entity-1="Extruder" data-entity-2="room" data-source-line="43" data-uid="lnk40" id="link_Extruder_room"><path d="M910.86,617.15 C953.03,615.32 1014.88,610.01 1066.74,595 C1114.58,581.16 1161.3762,553.7307 1181.1362,541.4307" fill="none" id="Extruder-to-room" style="stroke:#181818;stroke-width:1;"/><polygon fill="#181818" points="1186.23,538.26,1176.4755,539.6202,1181.9852,540.9023,1180.7032,546.4119,1186.23,538.26" style="stroke:#181818;stroke-width:1;"/></g><!--link Thermoplastic to Extruder--><g class="link" data-entity-1="Thermoplastic" data-entity-2="Extruder" data-source-line="44" data-uid="lnk41" id="link_Thermoplastic_Extruder"><path d="M557.05,653.83 C630.46,645.13 738.8416,632.2857 803.8516,624.5857" fill="none" id="Thermoplastic-to-Extruder" style="stroke:#181818;stroke-width:1;"/><polygon fill="#181818" points="809.81,623.88,800.402,620.9664,804.8447,624.4681,801.343,628.9108,809.81,623.88" style="stroke:#181818;stroke-width:1;"/></g><!--link Safety_Alarm to room--><g class="link" data-entity-1="Safety_Alarm" data-entity-2="room" data-source-line="47" data-uid="lnk43" id="link_Safety_Alarm_room"><path d="M750.48,426.78 C827.75,429.23 958.94,438.26 1066.74,470 C1114.66,484.11 1161.4285,511.9737 1181.1685,524.4537" fill="none" id="Safety_Alarm-to-room" style="stroke:#181818;stroke-width:1;"/><polygon fill="#181818" points="1186.24,527.66,1180.7703,519.4696,1182.0138,524.9881,1176.4953,526.2316,1186.24,527.66" style="stroke:#181818;stroke-width:1;"/></g><!--link Safety_Alarm to Cylinder--><g class="link" data-entity-1="Safety_Alarm" data-entity-2="Cylinder" data-source-line="48" data-uid="lnk44" id="link_Safety_Alarm_Cylinder"><path d="M723.07,449.46 C731.97,454.89 741.4,460.64 750.16,466 C773.7,480.39 794.9568,493.4207 815.8868,506.2707" fill="none" id="Safety_Alarm-to-Cylinder" style="stroke:#181818;stroke-width:1;"/><polygon fill="#181818" points="821,509.41,815.423,501.2923,816.739,506.7939,811.2373,508.1099,821,509.41" style="stroke:#181818;stroke-width:1;"/></g><!--link Safety_Alarm to Haul_Off--><g class="link" data-entity-1="Safety_Alarm" data-entity-2="Haul_Off" data-source-line="49" data-uid="lnk45" id="link_Safety_Alarm_Haul_Off"><path d="M729.41,402.56 C736.9,397.42 744.16,391.53 750.16,385 C803.59,326.85 835.9813,243.3783 850.1113,201.2683" fill="none" id="Safety_Alarm-to-Haul_Off" style="stroke:#181818;stroke-width:1;"/><polygon fill="#181818" points="852.02,195.58,845.3647,202.84,850.4294,200.3203,852.9491,205.3849,852.02,195.58" style="stroke:#181818;stroke-width:1;"/></g><!--link Safety_Alarm to Extruder--><g class="link" data-entity-1="Safety_Alarm" data-entity-2="Extruder" data-source-line="50" data-uid="lnk46" id="link_Safety_Alarm_Extruder"><path d="M730.27,449.59 C737.41,454.44 744.34,459.94 750.16,466 C788.2,505.6 775.87,531.11 810.16,574 C815.89,581.16 818.4048,584.1201 825.2548,590.3301" fill="none" id="Safety_Alarm-to-Extruder" style="stroke:#181818;stroke-width:1;"/><polygon fill="#181818" points="829.7,594.36,825.7188,585.3517,825.9957,591.0018,820.3456,591.2786,829.7,594.36" style="stroke:#181818;stroke-width:1;"/></g><!--link Rails to press--><g class="link" data-entity-1="Rails" data-entity-2="press" data-source-line="53" data-uid="lnk48" id="link_Rails_press"><path d="M345.45,390.56 C376.65,421.27 426.6346,470.4804 457.8446,501.2104" fill="none" id="Rails-to-press" style="stroke:#181818;stroke-width:1;"/><polygon fill="#181818" points="462.12,505.42,458.5133,496.2553,458.5572,501.912,452.9005,501.9558,462.12,505.42" style="stroke:#181818;stroke-width:1;"/></g><!--link Rails to room--><g class="link" data-entity-1="Rails" data-entity-2="room" data-source-line="54" data-uid="lnk49" id="link_Rails_room"><path d="M327.45,343.38 C341.96,287.4 380.79,149.18 417.22,120 C510.29,45.44 563.29,80 682.55,80 C682.55,80 682.55,80 861.41,80 C953.02,80 995.87,39.95 1066.74,98 C1137.37,155.86 1184.0561,460.1711 1192.3461,517.8311" fill="none" id="Rails-to-room" style="stroke:#181818;stroke-width:1;"/><polygon fill="#181818" points="1193.2,523.77,1195.8785,514.2924,1192.4884,518.8209,1187.9599,515.4308,1193.2,523.77" style="stroke:#181818;stroke-width:1;"/></g><!--link Synchronization_Board to Rails--><g class="link" data-entity-1="Synchronization_Board" data-entity-2="Rails" data-source-line="57" data-uid="lnk51" id="link_Synchronization_Board_Rails"><path d="M224.26,381.65 C245.45,378.39 260.5592,376.0589 277.4592,373.4689" fill="none" id="Synchronization_Board-to-Rails" style="stroke:#181818;stroke-width:1;"/><polygon fill="#181818" points="283.39,372.56,273.8879,369.9695,278.4477,373.3174,275.0998,377.8772,283.39,372.56" style="stroke:#181818;stroke-width:1;"/></g><!--link Synchronization_Board to Cylinder--><g class="link" data-entity-1="Synchronization_Board" data-entity-2="Cylinder" data-source-line="58" data-uid="lnk52" id="link_Synchronization_Board_Cylinder"><path d="M153.92,420.38 C204.47,459.01 312.38,535.35 417.22,570 C557.99,616.53 606.28,626.82 750.16,591 C777.25,584.26 799.9133,572.582 820.6633,559.602" fill="none" id="Synchronization_Board-to-Cylinder" style="stroke:#181818;stroke-width:1;"/><polygon fill="#181818" points="825.75,556.42,815.9986,557.8018,821.511,559.0716,820.2412,564.5841,825.75,556.42" style="stroke:#181818;stroke-width:1;"/></g><!--link Synchronization_Board to Haul_Off--><g class="link" data-entity-1="Synchronization_Board" data-entity-2="Haul_Off" data-source-line="59" data-uid="lnk53" id="link_Synchronization_Board_Haul_Off"><path d="M140.09,373.52 C179.07,317.42 286.73,176.14 417.22,120 C553.44,61.39 608.38,54.5 750.16,98 C782.36,107.88 809.0376,126.9132 829.8076,144.6532" fill="none" id="Synchronization_Board-to-Haul_Off" style="stroke:#181818;stroke-width:1;"/><polygon fill="#181818" points="834.37,148.55,830.1243,139.6633,830.568,145.3027,824.9286,145.7464,834.37,148.55" style="stroke:#181818;stroke-width:1;"/></g><!--link Synchronization_Board to Extruder--><g class="link" data-entity-1="Synchronization_Board" data-entity-2="Extruder" data-source-line="60" data-uid="lnk54" id="link_Synchronization_Board_Extruder"><path d="M130.11,420.42 C144.9,475.83 190.08,615.28 283.84,681 C449.29,796.98 704.3492,694.6137 808.6392,644.1437" fill="none" id="Synchronization_Board-to-Extruder" style="stroke:#181818;stroke-width:1;"/><polygon fill="#181818" points="814.04,641.53,804.1963,641.85,809.5393,643.7081,807.6812,649.051,814.04,641.53" style="stroke:#181818;stroke-width:1;"/></g><!--link Synchronization_Board to room--><g class="link" data-entity-1="Synchronization_Board" data-entity-2="room" data-source-line="61" data-uid="lnk55" id="link_Synchronization_Board_room"><path d="M155.39,373.46 C215.63,330.1 354.24,242 486.08,242 C486.08,242 486.08,242 861.41,242 C1036.87,242 1161.7552,468.4944 1187.1452,518.3044" fill="none" id="Synchronization_Board-to-room" style="stroke:#181818;stroke-width:1;"/><polygon fill="#181818" points="1189.87,523.65,1189.3465,513.8151,1187.5993,519.1953,1182.219,517.4482,1189.87,523.65" style="stroke:#181818;stroke-width:1;"/></g><!--link Synchronization_Board to Safety_Alarm--><g class="link" data-entity-1="Synchronization_Board" data-entity-2="Safety_Alarm" data-source-line="62" data-uid="lnk56" id="link_Synchronization_Board_Safety_Alarm"><path d="M224.32,404.26 C244.04,405.59 264.59,406.9 283.84,408 C400.92,414.68 531.4746,420.165 610.5646,423.265" fill="none" id="Synchronization_Board-to-Safety_Alarm" style="stroke:#181818;stroke-width:1;"/><polygon fill="#181818" points="616.56,423.5,607.7236,419.1506,611.5638,423.3042,607.4102,427.1444,616.56,423.5" style="stroke:#181818;stroke-width:1;"/></g><!--link building to energy--><g class="link" data-entity-1="building" data-entity-2="energy" data-source-line="68" data-uid="lnk60" id="link_building_energy"><path d="M1067,858.84 C1108.46,856.94 1165.28,854.34 1186.27,853.38" fill="none" id="building-energy" style="stroke:#181818;stroke-width:1;"/></g><!--link location to building--><g class="link" data-entity-1="location" data-entity-2="building" data-source-line="69" data-uid="lnk62" id="link_location_building"><path d="M869.38,863.85 C887.73,863.49 934.17,862.6 970.25,861.91" fill="none" id="location-building" style="stroke:#181818;stroke-width:1;"/></g><!--link frame to location--><g class="link" data-entity-1="frame" data-entity-2="location" data-source-line="71" data-uid="lnk63" id="link_frame_location"><path d="M724.67,799.27 C766.81,819.52 824.5409,847.2535 846.3109,857.7035" fill="none" id="frame-to-location" style="stroke:#181818;stroke-width:1;"/><polygon fill="#181818" points="851.72,860.3,845.3373,852.7992,847.2124,858.1363,841.8754,860.0114,851.72,860.3" style="stroke:#181818;stroke-width:1;"/></g><!--link room to energy--><g class="link" data-entity-1="room" data-entity-2="energy" data-source-line="72" data-uid="lnk64" id="link_room_energy"><path d="M1186.09,537.56 C1165.26,548.27 1115.59,577.25 1096.74,618.5 C1062.94,692.48 1056.23,730.97 1096.74,801.5 C1116,835.04 1159.5436,846.4896 1180.2536,850.3896" fill="none" id="room-to-energy" style="stroke:#181818;stroke-width:1;"/><polygon fill="#181818" points="1186.15,851.5,1178.0457,845.9035,1181.2364,850.5747,1176.5652,853.7653,1186.15,851.5" style="stroke:#181818;stroke-width:1;"/></g><!--SRC=[XPJFRjmW4CRlFCLeJ-d1hn2fYIerfqf9Rqba4OozA1Yi0IlPLddtyCTWMA-JFQpmp6- - -GQmpQjG4qKwmWjbhmFgMNMtMce4YrGPb-BA4ibx2rO3Yk5eeHF8cHLQ4SBqE6db4BXJbcDF6JTj9-ZW5VyJSB_mzzYx07yEwwiVC4a7ZhwicHi8kOZTdgHG7STC7fXMbZBxf0nNHkC1cWOIHM9HpCIIk7RGDHpY-abDsWXlzx3wIGhWk6o6x7b84I_rngC7r7hCm6ywo_PFtry20kGV_Anbjzg7DtpUfzY_r64rjPdEDqrOfluUEOxQDJLMiA_Wz00RZsl6UpmVTTcqgaysQOvquhvLbIx6cf0R4_6mX4Qw9g5ifQhYw69lh5B9S-UtPt5xfzoTGzwraevJR5-5_2Ra0zwqhz1Yc5_l5kTyST9JCB8lbhb2w87st9xQdvBY6CNAI2suoUINusAsElDDjlAocBcdGYv759O135jy5WkMbW5EYXrHA_6F-cDfRpJ5RfdaKYhK1wLlc7guNQoUSXUhnjt7rhtUHSgT9EI3aCUNMSXEgE6P4FSYSCLnEFdR3IdXmrApe0HDLoH8-206tGIG-0515ufIdm00]--></g></svg>