<svg xmlns="http://www.w3.org/2000/svg" xmlns:xlink="http://www.w3.org/1999/xlink" contentStyleType="text/css" data-diagram-type="DESCRIPTION" height="760px" preserveAspectRatio="none" style="width:1455px;height:760px;background:#FFFFFF;" version="1.1" viewBox="0 0 1455 760" width="1455px" zoomAndPan="magnify"><title>Extrusion and Material Processing Flow</title><defs/><g><g class="title" data-source-line="2"><text fill="#000000" font-family="sans-serif" font-size="14" font-weight="bold" lengthAdjust="spacing" textLength="312.2656" x="564.5701" y="22.9951">Extrusion and Material Processing Flow</text></g><!--cluster StartingMaterial--><g class="cluster" data-entity="StartingMaterial" data-source-line="11" data-uid="ent0002" id="cluster_StartingMaterial"><path d="M359.04,43.2969 L495.0361,43.2969 A3.75,3.75 0 0 1 497.5361,45.7969 L504.5361,65.5938 L588.04,65.5938 A2.5,2.5 0 0 1 590.54,68.0938 L590.54,157.0969 A2.5,2.5 0 0 1 588.04,159.5969 L359.04,159.5969 A2.5,2.5 0 0 1 356.54,157.0969 L356.54,45.7969 A2.5,2.5 0 0 1 359.04,43.2969" fill="none" style="stroke:#000000;stroke-width:1.5;"/><line style="stroke:#000000;stroke-width:1.5;" x1="356.54" x2="504.5361" y1="65.5938" y2="65.5938"/><text fill="#000000" font-family="sans-serif" font-size="14" font-weight="bold" lengthAdjust="spacing" textLength="134.9961" x="360.54" y="58.292">Starting Material</text></g><!--cluster Extruder--><g class="cluster" data-entity="Extruder" data-source-line="15" data-uid="ent0004" id="cluster_Extruder"><path d="M720.04,43.2969 L789.6181,43.2969 A3.75,3.75 0 0 1 792.1181,45.7969 L799.1181,65.5938 L873.04,65.5938 A2.5,2.5 0 0 1 875.54,68.0938 L875.54,157.0969 A2.5,2.5 0 0 1 873.04,159.5969 L720.04,159.5969 A2.5,2.5 0 0 1 717.54,157.0969 L717.54,45.7969 A2.5,2.5 0 0 1 720.04,43.2969" fill="none" style="stroke:#000000;stroke-width:1.5;"/><line style="stroke:#000000;stroke-width:1.5;" x1="717.54" x2="799.1181" y1="65.5938" y2="65.5938"/><text fill="#000000" font-family="sans-serif" font-size="14" font-weight="bold" lengthAdjust="spacing" textLength="68.5781" x="721.54" y="58.292">Extruder</text></g><!--cluster HaulOff--><g class="cluster" data-entity="HaulOff" data-source-line="18" data-uid="ent0006" id="cluster_HaulOff"><path d="M698.04,240.5969 L828.0546,240.5969 A3.75,3.75 0 0 1 830.5546,243.0969 L837.5546,262.8938 L895.04,262.8938 A2.5,2.5 0 0 1 897.54,265.3938 L897.54,354.3969 A2.5,2.5 0 0 1 895.04,356.8969 L698.04,356.8969 A2.5,2.5 0 0 1 695.54,354.3969 L695.54,243.0969 A2.5,2.5 0 0 1 698.04,240.5969" fill="none" style="stroke:#000000;stroke-width:1.5;"/><line style="stroke:#000000;stroke-width:1.5;" x1="695.54" x2="837.5546" y1="262.8938" y2="262.8938"/><text fill="#000000" font-family="sans-serif" font-size="14" font-weight="bold" lengthAdjust="spacing" textLength="129.0146" x="699.54" y="255.592">Haul-Off System</text></g><!--cluster Press--><g class="cluster" data-entity="Press" data-source-line="21" data-uid="ent0008" id="cluster_Press"><path d="M376.04,405.8969 L491.1455,405.8969 A3.75,3.75 0 0 1 493.6455,408.3969 L500.6455,428.1938 L764.04,428.1938 A2.5,2.5 0 0 1 766.54,430.6938 L766.54,644.9869 A2.5,2.5 0 0 1 764.04,647.4869 L376.04,647.4869 A2.5,2.5 0 0 1 373.54,644.9869 L373.54,408.3969 A2.5,2.5 0 0 1 376.04,405.8969" fill="none" style="stroke:#000000;stroke-width:1.5;"/><line style="stroke:#000000;stroke-width:1.5;" x1="373.54" x2="500.6455" y1="428.1938" y2="428.1938"/><text fill="#000000" font-family="sans-serif" font-size="14" font-weight="bold" lengthAdjust="spacing" textLength="114.1055" x="377.54" y="420.892">Press Machine</text></g><!--cluster Synchronization--><g class="cluster" data-entity="Synchronization" data-source-line="28" data-uid="ent0012" id="cluster_Synchronization"><rect fill="none" height="148.3" rx="2.5" ry="2.5" style="stroke:#181818;stroke-width:1;stroke-dasharray:7,7;" width="631" x="40.54" y="208.5969"/><rect fill="none" height="10" style="stroke:#181818;stroke-width:1;stroke-dasharray:7,7;" width="15" x="651.54" y="213.5969"/><rect fill="none" height="2" style="stroke:#181818;stroke-width:1;stroke-dasharray:7,7;" width="4" x="649.54" y="215.5969"/><rect fill="none" height="2" style="stroke:#181818;stroke-width:1;stroke-dasharray:7,7;" width="4" x="649.54" y="219.5969"/><text fill="#000000" font-family="sans-serif" font-size="14" font-style="italic" lengthAdjust="spacing" textLength="68.2637" x="321.9082" y="234.592">&#171;dashed&#187;</text><text fill="#000000" font-family="sans-serif" font-size="14" font-weight="bold" lengthAdjust="spacing" textLength="127.4014" x="292.3393" y="250.8889">Synchronization</text></g><!--cluster Temperature_Control--><g class="cluster" data-entity="Temperature_Control" data-source-line="35" data-uid="ent0017" id="cluster_Temperature_Control"><path d="M793.04,405.8969 L959.3466,405.8969 A3.75,3.75 0 0 1 961.8466,408.3969 L968.8466,428.1938 L1143.04,428.1938 A2.5,2.5 0 0 1 1145.54,430.6938 L1145.54,519.6869 A2.5,2.5 0 0 1 1143.04,522.1869 L793.04,522.1869 A2.5,2.5 0 0 1 790.54,519.6869 L790.54,408.3969 A2.5,2.5 0 0 1 793.04,405.8969" fill="none" style="stroke:#000000;stroke-width:1.5;"/><line style="stroke:#000000;stroke-width:1.5;" x1="790.54" x2="968.8466" y1="428.1938" y2="428.1938"/><text fill="#000000" font-family="sans-serif" font-size="14" font-weight="bold" lengthAdjust="spacing" textLength="165.3066" x="794.54" y="420.892">Temperature Control</text></g><!--entity Thermoplastic Material--><g class="entity" data-entity="Thermoplastic Material" data-source-line="12" data-uid="ent0003" id="entity_Thermoplastic Material"><rect fill="#F1F1F1" height="46.2969" rx="2.5" ry="2.5" style="stroke:#181818;stroke-width:0.5;" width="201.0479" x="373.01" y="97.2969"/><rect fill="#F1F1F1" height="10" style="stroke:#181818;stroke-width:0.5;" width="15" x="554.0579" y="102.2969"/><rect fill="#F1F1F1" height="2" style="stroke:#181818;stroke-width:0.5;" width="4" x="552.0579" y="104.2969"/><rect fill="#F1F1F1" height="2" style="stroke:#181818;stroke-width:0.5;" width="4" x="552.0579" y="108.2969"/><text fill="#000000" font-family="sans-serif" font-size="14" lengthAdjust="spacing" textLength="161.0479" x="388.01" y="130.292">Thermoplastic Material</text></g><!--entity Hot Material--><g class="entity" data-entity="Hot Material" data-source-line="16" data-uid="ent0005" id="entity_Hot Material"><rect fill="#F1F1F1" height="46.2969" rx="2.5" ry="2.5" style="stroke:#181818;stroke-width:0.5;" width="125.9072" x="733.58" y="97.2969"/><rect fill="#F1F1F1" height="10" style="stroke:#181818;stroke-width:0.5;" width="15" x="839.4872" y="102.2969"/><rect fill="#F1F1F1" height="2" style="stroke:#181818;stroke-width:0.5;" width="4" x="837.4872" y="104.2969"/><rect fill="#F1F1F1" height="2" style="stroke:#181818;stroke-width:0.5;" width="4" x="837.4872" y="108.2969"/><text fill="#000000" font-family="sans-serif" font-size="14" lengthAdjust="spacing" textLength="85.9072" x="748.58" y="130.292">Hot Material</text></g><!--entity Pulling Mechanism--><g class="entity" data-entity="Pulling Mechanism" data-source-line="19" data-uid="ent0007" id="entity_Pulling Mechanism"><rect fill="#F1F1F1" height="46.2969" rx="2.5" ry="2.5" style="stroke:#181818;stroke-width:0.5;" width="170.7305" x="711.17" y="294.5969"/><rect fill="#F1F1F1" height="10" style="stroke:#181818;stroke-width:0.5;" width="15" x="861.9005" y="299.5969"/><rect fill="#F1F1F1" height="2" style="stroke:#181818;stroke-width:0.5;" width="4" x="859.9005" y="301.5969"/><rect fill="#F1F1F1" height="2" style="stroke:#181818;stroke-width:0.5;" width="4" x="859.9005" y="305.5969"/><text fill="#000000" font-family="sans-serif" font-size="14" lengthAdjust="spacing" textLength="130.7305" x="726.17" y="327.592">Pulling Mechanism</text></g><!--entity Pressing Cylinder--><g class="entity" data-entity="Pressing Cylinder" data-source-line="22" data-uid="ent0009" id="entity_Pressing Cylinder"><rect fill="#F1F1F1" height="46.2969" rx="2.5" ry="2.5" style="stroke:#181818;stroke-width:0.5;" width="161.4678" x="552.8" y="585.1869"/><rect fill="#F1F1F1" height="10" style="stroke:#181818;stroke-width:0.5;" width="15" x="694.2678" y="590.1869"/><rect fill="#F1F1F1" height="2" style="stroke:#181818;stroke-width:0.5;" width="4" x="692.2678" y="592.1869"/><rect fill="#F1F1F1" height="2" style="stroke:#181818;stroke-width:0.5;" width="4" x="692.2678" y="596.1869"/><text fill="#000000" font-family="sans-serif" font-size="14" lengthAdjust="spacing" textLength="121.4678" x="567.8" y="618.182">Pressing Cylinder</text></g><!--entity Moving Rails--><g class="entity" data-entity="Moving Rails" data-source-line="23" data-uid="ent0010" id="entity_Moving Rails"><rect fill="#F1F1F1" height="46.2969" rx="2.5" ry="2.5" style="stroke:#181818;stroke-width:0.5;" width="128.4092" x="389.33" y="585.1869"/><rect fill="#F1F1F1" height="10" style="stroke:#181818;stroke-width:0.5;" width="15" x="497.7392" y="590.1869"/><rect fill="#F1F1F1" height="2" style="stroke:#181818;stroke-width:0.5;" width="4" x="495.7392" y="592.1869"/><rect fill="#F1F1F1" height="2" style="stroke:#181818;stroke-width:0.5;" width="4" x="495.7392" y="596.1869"/><text fill="#000000" font-family="sans-serif" font-size="14" lengthAdjust="spacing" textLength="88.4092" x="404.33" y="618.182">Moving Rails</text></g><!--entity Processing Area--><g class="entity" data-entity="Processing Area" data-source-line="24" data-uid="ent0011" id="entity_Processing Area"><rect fill="#F1F1F1" height="46.2969" rx="2.5" ry="2.5" style="stroke:#181818;stroke-width:0.5;" width="152.2871" x="598.39" y="459.8969"/><rect fill="#F1F1F1" height="10" style="stroke:#181818;stroke-width:0.5;" width="15" x="730.6771" y="464.8969"/><rect fill="#F1F1F1" height="2" style="stroke:#181818;stroke-width:0.5;" width="4" x="728.6771" y="466.8969"/><rect fill="#F1F1F1" height="2" style="stroke:#181818;stroke-width:0.5;" width="4" x="728.6771" y="470.8969"/><text fill="#000000" font-family="sans-serif" font-size="14" lengthAdjust="spacing" textLength="112.2871" x="613.39" y="492.892">Processing Area</text></g><!--entity Speed--><g class="entity" data-entity="Speed" data-source-line="29" data-uid="ent0013" id="entity_Speed"><rect fill="#F1F1F1" height="46.2969" rx="2.5" ry="2.5" style="stroke:#181818;stroke-width:0.5;" width="83.8867" x="56.59" y="294.5969"/><rect fill="#F1F1F1" height="10" style="stroke:#181818;stroke-width:0.5;" width="15" x="120.4767" y="299.5969"/><rect fill="#F1F1F1" height="2" style="stroke:#181818;stroke-width:0.5;" width="4" x="118.4767" y="301.5969"/><rect fill="#F1F1F1" height="2" style="stroke:#181818;stroke-width:0.5;" width="4" x="118.4767" y="305.5969"/><text fill="#000000" font-family="sans-serif" font-size="14" lengthAdjust="spacing" textLength="43.8867" x="71.59" y="327.592">Speed</text></g><!--entity Rail Position--><g class="entity" data-entity="Rail Position" data-source-line="30" data-uid="ent0014" id="entity_Rail Position"><rect fill="#F1F1F1" height="46.2969" rx="2.5" ry="2.5" style="stroke:#181818;stroke-width:0.5;" width="125.5449" x="175.76" y="294.5969"/><rect fill="#F1F1F1" height="10" style="stroke:#181818;stroke-width:0.5;" width="15" x="281.3049" y="299.5969"/><rect fill="#F1F1F1" height="2" style="stroke:#181818;stroke-width:0.5;" width="4" x="279.3049" y="301.5969"/><rect fill="#F1F1F1" height="2" style="stroke:#181818;stroke-width:0.5;" width="4" x="279.3049" y="305.5969"/><text fill="#000000" font-family="sans-serif" font-size="14" lengthAdjust="spacing" textLength="85.5449" x="190.76" y="327.592">Rail Position</text></g><!--entity Cylinder--><g class="entity" data-entity="Cylinder" data-source-line="31" data-uid="ent0015" id="entity_Cylinder"><rect fill="#F1F1F1" height="46.2969" rx="2.5" ry="2.5" style="stroke:#181818;stroke-width:0.5;" width="97.9688" x="336.55" y="294.5969"/><rect fill="#F1F1F1" height="10" style="stroke:#181818;stroke-width:0.5;" width="15" x="414.5188" y="299.5969"/><rect fill="#F1F1F1" height="2" style="stroke:#181818;stroke-width:0.5;" width="4" x="412.5188" y="301.5969"/><rect fill="#F1F1F1" height="2" style="stroke:#181818;stroke-width:0.5;" width="4" x="412.5188" y="305.5969"/><text fill="#000000" font-family="sans-serif" font-size="14" lengthAdjust="spacing" textLength="57.9688" x="351.55" y="327.592">Cylinder</text></g><!--entity Temperature Control--><g class="entity" data-entity="Temperature Control" data-source-line="32" data-uid="ent0016" id="entity_Temperature Control"><rect fill="#F1F1F1" height="46.2969" rx="2.5" ry="2.5" style="stroke:#181818;stroke-width:0.5;" width="186.7334" x="469.17" y="294.5969"/><rect fill="#F1F1F1" height="10" style="stroke:#181818;stroke-width:0.5;" width="15" x="635.9034" y="299.5969"/><rect fill="#F1F1F1" height="2" style="stroke:#181818;stroke-width:0.5;" width="4" x="633.9034" y="301.5969"/><rect fill="#F1F1F1" height="2" style="stroke:#181818;stroke-width:0.5;" width="4" x="633.9034" y="305.5969"/><text fill="#000000" font-family="sans-serif" font-size="14" lengthAdjust="spacing" textLength="146.7334" x="484.17" y="327.592">Temperature Control</text></g><!--entity Infrared Lamp--><g class="entity" data-entity="Infrared Lamp" data-source-line="36" data-uid="ent0018" id="entity_Infrared Lamp"><rect fill="#F1F1F1" height="46.2969" rx="2.5" ry="2.5" style="stroke:#181818;stroke-width:0.5;" width="138.875" x="991.1" y="459.8969"/><rect fill="#F1F1F1" height="10" style="stroke:#181818;stroke-width:0.5;" width="15" x="1109.975" y="464.8969"/><rect fill="#F1F1F1" height="2" style="stroke:#181818;stroke-width:0.5;" width="4" x="1107.975" y="466.8969"/><rect fill="#F1F1F1" height="2" style="stroke:#181818;stroke-width:0.5;" width="4" x="1107.975" y="470.8969"/><text fill="#000000" font-family="sans-serif" font-size="14" lengthAdjust="spacing" textLength="98.875" x="1006.1" y="492.892">Infrared Lamp</text></g><!--entity Cooling System--><g class="entity" data-entity="Cooling System" data-source-line="37" data-uid="ent0019" id="entity_Cooling System"><rect fill="#F1F1F1" height="46.2969" rx="2.5" ry="2.5" style="stroke:#181818;stroke-width:0.5;" width="149.1016" x="806.98" y="459.8969"/><rect fill="#F1F1F1" height="10" style="stroke:#181818;stroke-width:0.5;" width="15" x="936.0816" y="464.8969"/><rect fill="#F1F1F1" height="2" style="stroke:#181818;stroke-width:0.5;" width="4" x="934.0816" y="466.8969"/><rect fill="#F1F1F1" height="2" style="stroke:#181818;stroke-width:0.5;" width="4" x="934.0816" y="470.8969"/><text fill="#000000" font-family="sans-serif" font-size="14" lengthAdjust="spacing" textLength="109.1016" x="821.98" y="492.892">Cooling System</text></g><!--entity Processed Material--><g class="entity" data-entity="Processed Material" data-source-line="54" data-uid="ent0027" id="entity_Processed Material"><rect fill="#F1F1F1" height="46.2969" rx="2.5" ry="2.5" style="stroke:#181818;stroke-width:0.5;" width="172.4873" x="820.29" y="585.1869"/><rect fill="#F1F1F1" height="10" style="stroke:#181818;stroke-width:0.5;" width="15" x="972.7773" y="590.1869"/><rect fill="#F1F1F1" height="2" style="stroke:#181818;stroke-width:0.5;" width="4" x="970.7773" y="592.1869"/><rect fill="#F1F1F1" height="2" style="stroke:#181818;stroke-width:0.5;" width="4" x="970.7773" y="596.1869"/><text fill="#000000" font-family="sans-serif" font-size="14" lengthAdjust="spacing" textLength="132.4873" x="835.29" y="618.182">Processed Material</text></g><g class="entity" data-entity="GMN29" data-source-line="56" data-uid="ent0030" id="entity_GMN29"><path d="M1164.67,462.9069 L1164.67,503.1725 L1448.4058,503.1725 L1448.4058,472.9069 L1438.4058,462.9069 L1164.67,462.9069" fill="#FEFFDD" style="stroke:#181818;stroke-width:0.5;"/><path d="M1438.4058,462.9069 L1438.4058,472.9069 L1448.4058,472.9069 L1438.4058,462.9069" fill="#FEFFDD" style="stroke:#181818;stroke-width:1;"/><text fill="#000000" font-family="sans-serif" font-size="13" lengthAdjust="spacing" textLength="262.7358" x="1170.67" y="479.9738">The material is positioned into the press</text><text fill="#000000" font-family="sans-serif" font-size="13" lengthAdjust="spacing" textLength="185.688" x="1170.67" y="495.1066">and pressed by the cylinder.</text></g><!--link Thermoplastic Material to Hot Material--><g class="link" data-entity-1="Thermoplastic Material" data-entity-2="Hot Material" data-source-line="41" data-uid="lnk20" id="link_Thermoplastic Material_Hot Material"><path d="M574.41,120.4469 C626.42,120.4469 682.25,120.4469 727.45,120.4469" fill="none" id="Thermoplastic Material-to-Hot Material" style="stroke:#181818;stroke-width:1.2;"/><polygon fill="#181818" points="733.45,120.4469,724.45,116.4469,728.45,120.4469,724.45,124.4469,733.45,120.4469" style="stroke:#181818;stroke-width:1.2;"/><text fill="#000000" font-family="sans-serif" font-size="13" lengthAdjust="spacing" textLength="123.0239" x="592.32" y="113.5138">Material Processed</text></g><!--link Hot Material to Pulling Mechanism--><g class="link" data-entity-1="Hot Material" data-entity-2="Pulling Mechanism" data-source-line="42" data-uid="lnk21" id="link_Hot Material_Pulling Mechanism"><path d="M796.54,143.8469 C796.54,181.4269 796.54,250.7069 796.54,288.3069" fill="none" id="Hot Material-to-Pulling Mechanism" style="stroke:#181818;stroke-width:1.2;"/><polygon fill="#181818" points="796.54,294.3069,800.54,285.3069,796.54,289.3069,792.54,285.3069,796.54,294.3069" style="stroke:#181818;stroke-width:1.2;"/><text fill="#000000" font-family="sans-serif" font-size="13" font-weight="bold" lengthAdjust="spacing" textLength="66.5742" x="797.54" y="188.6638">Extruded</text></g><!--reverse link Hot Material to Infrared Lamp--><g class="link" data-entity-1="Hot Material" data-entity-2="Infrared Lamp" data-source-line="43" data-uid="lnk23" id="link_Hot Material_Infrared Lamp"><path d="M838.9714,147.4263 C859.8814,161.5563 880.16,177.9869 897.54,200.5969 C966,289.6969 1026.52,410.3369 1050.07,459.6469" fill="none" id="Hot Material-backto-Infrared Lamp" style="stroke:#181818;stroke-width:1.2;"/><polygon fill="#181818" points="834,144.0669,839.2174,152.4202,838.1428,146.8664,843.6966,145.7918,834,144.0669" style="stroke:#181818;stroke-width:1.2;"/><text fill="#000000" font-family="sans-serif" font-size="13" lengthAdjust="spacing" textLength="141.8511" x="1000.6" y="322.3138">Keeping Temperature</text></g><!--link Pulling Mechanism to Processing Area--><g class="link" data-entity-1="Pulling Mechanism" data-entity-2="Processing Area" data-source-line="48" data-uid="lnk24" id="link_Pulling Mechanism_Processing Area"><path d="M843.07,341.3169 C865.18,354.9869 883.78,372.9969 868.54,389.8969 C856.86,402.8269 806.81,391.6769 790.54,397.8969 C754.51,411.6569 724.035,435.5668 702.075,455.4768" fill="none" id="Pulling Mechanism-to-Processing Area" style="stroke:#181818;stroke-width:1.2;"/><polygon fill="#181818" points="697.63,459.5069,706.9843,456.4251,701.3342,456.1485,701.6108,450.4984,697.63,459.5069" style="stroke:#181818;stroke-width:1.2;"/><text fill="#000000" font-family="sans-serif" font-size="13" lengthAdjust="spacing" textLength="96.4971" x="875.08" y="385.9638">Pulled Material</text></g><!--link Processing Area to Moving Rails--><g class="link" data-entity-1="Processing Area" data-entity-2="Moving Rails" data-source-line="51" data-uid="lnk25" id="link_Processing Area_Moving Rails"><path d="M624.91,506.6669 C603.4,515.4969 577.67,524.7769 553.54,530.1869 C542.23,532.7269 457.41,529.6869 449.54,538.1869 C438.18,550.4569 438.6701,564.0211 443.0201,579.1311" fill="none" id="Processing Area-to-Moving Rails" style="stroke:#181818;stroke-width:1.2;"/><polygon fill="#181818" points="444.68,584.8969,446.034,575.1415,443.2967,580.092,438.3462,577.3548,444.68,584.8969" style="stroke:#181818;stroke-width:1.2;"/><text fill="#000000" font-family="sans-serif" font-size="13" font-weight="bold" lengthAdjust="spacing" textLength="102.9019" x="450.54" y="551.2538">Input Position</text></g><!--link Processing Area to Pressing Cylinder--><g class="link" data-entity-1="Processing Area" data-entity-2="Pressing Cylinder" data-source-line="52" data-uid="lnk26" id="link_Processing Area_Pressing Cylinder"><path d="M600.92,506.6169 C586.87,514.3569 573.94,524.6269 565.54,538.1869 C554.63,555.7969 564.9089,569.1168 583.7189,581.6668" fill="none" id="Processing Area-to-Pressing Cylinder" style="stroke:#181818;stroke-width:1.2;"/><polygon fill="#181818" points="588.71,584.9969,583.4434,576.6744,584.5508,582.2218,579.0034,583.3292,588.71,584.9969" style="stroke:#181818;stroke-width:1.2;"/><text fill="#000000" font-family="sans-serif" font-size="13" font-weight="bold" lengthAdjust="spacing" textLength="180.5908" x="566.54" y="551.2538">Pressing/Opening Action</text></g><!--link Processing Area to Processed Material--><g class="link" data-entity-1="Processing Area" data-entity-2="Processed Material" data-source-line="54" data-uid="lnk28" id="link_Processing Area_Processed Material"><path d="M705.59,506.4269 C726.92,521.2769 756.21,540.6269 783.54,555.1869 C803.8,565.9869 821.2448,573.9455 841.8148,582.4455" fill="none" id="Processing Area-to-Processed Material" style="stroke:#181818;stroke-width:1.2;"/><polygon fill="#181818" points="847.36,584.7369,840.5698,577.6029,842.739,582.8274,837.5146,584.9966,847.36,584.7369" style="stroke:#181818;stroke-width:1.2;"/><text fill="#000000" font-family="sans-serif" font-size="13" lengthAdjust="spacing" textLength="111.1475" x="784.54" y="551.2538">Finished Material</text></g><!--link Processing Area to GMN29--><g class="link" data-entity-1="Processing Area" data-entity-2="GMN29" data-source-line="56" data-uid="lnk31" id="link_Processing Area_GMN29"><path d="M695.88,459.4669 C720.2,434.5469 762.49,396.7569 808.04,381.3969 C875.42,358.6569 1059.29,363.1969 1128.04,381.3969 C1187.33,397.0969 1247.53,437.5769 1280.64,462.4669" fill="none" id="Processing Area-GMN29" style="stroke:#181818;stroke-width:1.2;stroke-dasharray:7,7;"/></g><!--reverse link Cooling System to Processed Material--><g class="link" data-entity-1="Cooling System" data-entity-2="Processed Material" data-source-line="67" data-uid="lnk33" id="link_Cooling System_Processed Material"><path d="M895.8596,512.0568 C900.2296,521.5468 902.18,527.4169 904.54,538.1869 C907.9,553.5569 908.34,571.3069 907.97,584.9769" fill="none" id="Cooling System-backto-Processed Material" style="stroke:#181818;stroke-width:1.2;"/><polygon fill="#181818" points="893.35,506.6069,893.4811,516.4549,895.4413,511.1485,900.7477,513.1087,893.35,506.6069" style="stroke:#181818;stroke-width:1.2;"/><text fill="#000000" font-family="sans-serif" font-size="13" lengthAdjust="spacing" textLength="127.0356" x="908.09" y="551.2538">**Pressing/Opening</text></g><!--link Speed to Pulling Mechanism--><g class="link" data-entity-1="Speed" data-entity-2="Pulling Mechanism" data-source-line="70" data-uid="lnk34" id="link_Speed_Pulling Mechanism"><path d="M104.04,294.2069 C111.51,268.2469 127.63,227.7469 158.54,209.5369 C207.65,180.6069 618.12,189.6269 671.54,209.5369 C716.72,226.3769 752.5946,263.1028 774.5646,289.5328" fill="none" id="Speed-to-Pulling Mechanism" style="stroke:#181818;stroke-width:1.2;stroke-dasharray:7,7;"/><polygon fill="#181818" points="778.4,294.1469,775.7229,284.6688,775.2038,290.3018,769.5708,289.7828,778.4,294.1469" style="stroke:#181818;stroke-width:1.2;"/><text fill="#000000" font-family="sans-serif" font-size="13" lengthAdjust="spacing" textLength="141.3813" x="409.04" y="188.6638">Pulled Material Speed</text></g><!--link Hot Material to Speed--><g class="link" data-entity-1="Hot Material" data-entity-2="Speed" data-source-line="71" data-uid="lnk35" id="link_Hot Material_Speed"><path d="M733.53,138.9369 C693.03,149.3369 639.1,161.6369 590.54,167.5969 C443.6,185.6469 404.22,155.5669 257.54,175.5969 C212.57,181.7369 194.09,172.3869 158.54,200.5969 C128.31,224.5769 113.4488,262.1665 105.7488,288.5865" fill="none" id="Hot Material-to-Speed" style="stroke:#181818;stroke-width:1.2;stroke-dasharray:7,7;"/><polygon fill="#181818" points="104.07,294.3469,110.4285,286.8256,105.469,289.5466,102.748,284.5871,104.07,294.3469" style="stroke:#181818;stroke-width:1.2;"/><text fill="#000000" font-family="sans-serif" font-size="13" lengthAdjust="spacing" textLength="141.3813" x="258.54" y="188.6638">Pulled Material Speed</text></g><!--link Speed to Moving Rails--><g class="link" data-entity-1="Speed" data-entity-2="Moving Rails" data-source-line="72" data-uid="lnk36" id="link_Speed_Moving Rails"><path d="M77.25,341.2969 C64.78,356.1269 50.19,376.6569 43.54,397.8969 C25.95,453.9969 6,484.9269 43.54,530.1869 C86.71,582.2469 279.0883,599.0916 383.2483,604.5716" fill="none" id="Speed-to-Moving Rails" style="stroke:#181818;stroke-width:1.2;stroke-dasharray:7,7;"/><polygon fill="#181818" points="389.24,604.8869,380.4626,600.4196,384.2469,604.6242,380.0423,608.4085,389.24,604.8869" style="stroke:#181818;stroke-width:1.2;"/><text fill="#000000" font-family="sans-serif" font-size="13" lengthAdjust="spacing" textLength="141.3813" x="44.54" y="487.6038">Pulled Material Speed</text></g><!--link Rail Position to Moving Rails--><g class="link" data-entity-1="Rail Position" data-entity-2="Moving Rails" data-source-line="73" data-uid="lnk37" id="link_Rail Position_Moving Rails"><path d="M226.8,341.3569 C206.98,383.0469 172.9,472.9969 214.54,530.1869 C254.12,584.5669 326.7919,600.9048 383.0619,605.7248" fill="none" id="Rail Position-to-Moving Rails" style="stroke:#181818;stroke-width:1.2;stroke-dasharray:7,7;"/><polygon fill="#181818" points="389.04,606.2369,380.4142,601.4834,384.0582,605.8101,379.7315,609.4542,389.04,606.2369" style="stroke:#181818;stroke-width:1.2;"/><text fill="#000000" font-family="sans-serif" font-size="13" lengthAdjust="spacing" textLength="126.8833" x="215.54" y="487.6038">Initial/Final position</text></g><!--link Cylinder to Pressing Cylinder--><g class="link" data-entity-1="Cylinder" data-entity-2="Pressing Cylinder" data-source-line="74" data-uid="lnk38" id="link_Cylinder_Pressing Cylinder"><path d="M381.87,341.3269 C375.47,389.7469 368.53,503.3469 433.54,555.1869 C438.51,559.1569 493.4636,573.2841 546.7336,586.3841" fill="none" id="Cylinder-to-Pressing Cylinder" style="stroke:#181818;stroke-width:1.2;stroke-dasharray:7,7;"/><polygon fill="#181818" points="552.56,587.8169,544.7756,581.7834,547.7047,586.6229,542.8652,589.5519,552.56,587.8169" style="stroke:#181818;stroke-width:1.2;"/><text fill="#000000" font-family="sans-serif" font-size="13" lengthAdjust="spacing" textLength="158.1836" x="410.81" y="487.6038">Pressing/Opening action</text></g><!--link Temperature Control to Infrared Lamp--><g class="link" data-entity-1="Temperature Control" data-entity-2="Infrared Lamp" data-source-line="75" data-uid="lnk39" id="link_Temperature Control_Infrared Lamp"><path d="M600.11,341.2669 C634.21,361.6069 679.86,388.5569 684.54,389.8969 C715.43,398.7069 943.93,385.4369 973.54,397.8969 C1003.95,410.6869 1026.1515,434.6584 1041.5815,454.9784" fill="none" id="Temperature Control-to-Infrared Lamp" style="stroke:#181818;stroke-width:1.2;stroke-dasharray:7,7;"/><polygon fill="#181818" points="1045.21,459.7569,1042.9528,450.1702,1042.1862,455.7748,1036.5816,455.0082,1045.21,459.7569" style="stroke:#181818;stroke-width:1.2;"/><text fill="#000000" font-family="sans-serif" font-size="13" lengthAdjust="spacing" textLength="174.6431" x="685.54" y="385.9638">Temperature Manegement</text></g><!--link Temperature Control to Cooling System--><g class="link" data-entity-1="Temperature Control" data-entity-2="Cooling System" data-source-line="76" data-uid="lnk40" id="link_Temperature Control_Cooling System"><path d="M502.94,341.2369 C476.56,354.3869 455.03,371.9069 472.54,389.8969 C483.93,401.6069 751.07,392.6069 766.54,397.8969 C803.29,410.4569 833.8556,435.1291 855.3756,455.5291" fill="none" id="Temperature Control-to-Cooling System" style="stroke:#181818;stroke-width:1.2;stroke-dasharray:7,7;"/><polygon fill="#181818" points="859.73,459.6569,855.9502,450.5622,856.1013,456.217,850.4465,456.3681,859.73,459.6569" style="stroke:#181818;stroke-width:1.2;"/><text fill="#000000" font-family="sans-serif" font-size="13" lengthAdjust="spacing" textLength="174.6431" x="473.54" y="385.9638">Temperature Manegement</text></g><g class="legend" data-source-line="61"><rect fill="#DDDDDD" height="75.1875" rx="7.5" ry="7.5" style="stroke:#000000;stroke-width:1;" width="273.9902" x="1155.4156" y="665.4869"/><text fill="#000000" font-family="sans-serif" font-size="14" lengthAdjust="spacing" textLength="148.0322" x="1160.4156" y="683.482">- [] : State or Product</text><text fill="#000000" font-family="sans-serif" font-size="14" lengthAdjust="spacing" textLength="250.3936" x="1160.4156" y="699.7789">- component : Machinery or System</text><text fill="#000000" font-family="sans-serif" font-size="14" lengthAdjust="spacing" textLength="138.2363" x="1160.4156" y="716.0757">- --&gt; : Material Flow</text><text fill="#000000" font-family="sans-serif" font-size="14" lengthAdjust="spacing" textLength="263.9902" x="1160.4156" y="732.3726">- .&gt; : Mechanical Action or Movement</text></g><!--SRC=[VLLDQnin4BthLmo-10nsQEafX42QDYGq8QREBPYYxifUaLrfaUIuRkb_xyn8-v7TTNE9BSsyUVFcQNm6ppgK2kmMGg4WrtBdP2K27txz5TpUQsj0cXmUPL1Eon9MpcRAUsrsS5lQW_2lsjGIq-3QENjuBdJsQZ00FYm_YjvjPglQ6cN2vMKkVQ7ogolu8m3_FbkNAxSEHomQhyJVwSIrBVLqteCsgYlz2G5gcRtAdO9ra2uWsxO1wM7M7BPjpHZpvRbGhh9rANtGMNkvGRWp-AAsskY0WlX6i4fgq_7pRKsM3hb5q3iRta4rKNToNpvjjqo8FY_eo_heWweIdTM-B9cboWffjA_wwIj7hL9o_FGeim9LcCLCbsPqSqG4fBAXqqVxHcVVfIxz9eQrmxnsIcu4uhEsRLD8o6I5iqR_bjGxTEEBKtXPrqhbc_YPa65bFSkKpleCI69LrSh9i7SARgm9pfPSbYwRrdenFr8CDpgHEqiixitMIQToU91LtLIsbkMBcf9sECRM1rjqBrjRPZnKSMhwiBWQ314kHky1JJk8ML3QU8AOEvydW-JpkHWmXyM-dghtJQcQW7eI2C7zs3TLqQ2ebTuyaqKR33559L8SU02BKQZgthnWz_lCwPejWD1Lgke1Nm3LOSE9CTWYjmT3PTvvZqMuD_K-j6uXAKvdZ_tC4Ctn-LEj3ATb2MiAhDTjhpj2kiMNJQRkMZOsA71wLmHgT_nGo63Fl0AI3xI7EhM2EDe4oxhKh0j5qtpu6rx_FF9bbffP2eMNL9AaVb0x_2fA_XSv8C02NeWfRYuaPXsDEjzdyQPxhHVD6d172ehEvnZglcTRtjrqlkJZw8aCBwA2bDmuYyb5Dc9IlsJPmNER7X0sEDmeoQc7mfQa5-EBj5PWoVqlJpsbWLE1iuOliSD8e2VpHaM7hZsHztxlmN8gzPv-F6HvZbx3nCOhejkFCMtIwICPuyuIaziquWpMoaL_So1_W_FauVu7OZpGQOn_]--></g></svg>