<svg xmlns="http://www.w3.org/2000/svg" xmlns:xlink="http://www.w3.org/1999/xlink" contentStyleType="text/css" data-diagram-type="SEQUENCE" height="826px" preserveAspectRatio="none" style="width:732px;height:826px;background:#FFFFFF;" version="1.1" viewBox="0 0 732 826" width="732px" zoomAndPan="magnify"><title>Linear Extrusion Process Flow</title><defs/><g><text fill="#000000" font-family="sans-serif" font-size="14" font-weight="bold" lengthAdjust="spacing" textLength="237.1865" x="243.5916" y="27.9951">Linear Extrusion Process Flow</text><rect fill="none" height="390.4609" style="stroke:#000000;stroke-width:1.5;" width="705.3696" x="10" y="290.2578"/><rect fill="none" height="288.0625" style="stroke:#000000;stroke-width:1.5;" width="551.5391" x="153.8306" y="385.6563"/><rect fill="none" height="143.5313" style="stroke:#000000;stroke-width:1.5;" width="531.5391" x="163.8306" y="523.1875"/><g><title>Extruder</title><rect fill="#000000" fill-opacity="0.00000" height="717.5234" width="8" x="53.2524" y="73.5938"/><line style="stroke:#181818;stroke-width:0.5;stroke-dasharray:5,5;" x1="57" x2="57" y1="73.5938" y2="791.1172"/></g><g><title>Linear Rail</title><rect fill="#000000" fill-opacity="0.00000" height="717.5234" width="8" x="213.854" y="73.5938"/><line style="stroke:#181818;stroke-width:0.5;stroke-dasharray:5,5;" x1="217.8306" x2="217.8306" y1="73.5938" y2="791.1172"/></g><g><title>Press</title><rect fill="#000000" fill-opacity="0.00000" height="717.5234" width="8" x="369.9336" y="73.5938"/><line style="stroke:#181818;stroke-width:0.5;stroke-dasharray:5,5;" x1="373.2339" x2="373.2339" y1="73.5938" y2="791.1172"/></g><g><title>Haul Off</title><rect fill="#000000" fill-opacity="0.00000" height="717.5234" width="8" x="520.9414" y="73.5938"/><line style="stroke:#181818;stroke-width:0.5;stroke-dasharray:5,5;" x1="524.3433" x2="524.3433" y1="73.5938" y2="791.1172"/></g><g><title>Cutter</title><rect fill="#000000" fill-opacity="0.00000" height="717.5234" width="8" x="595.5376" y="73.5938"/><line style="stroke:#181818;stroke-width:0.5;stroke-dasharray:5,5;" x1="598.5396" x2="598.5396" y1="73.5938" y2="791.1172"/></g><g class="participant participant-head" data-participant="extruder"><rect fill="#E2E2F0" height="30.2969" rx="2.5" ry="2.5" style="stroke:#181818;stroke-width:0.5;" width="74.5049" x="20" y="42.2969"/><text fill="#000000" font-family="sans-serif" font-size="14" lengthAdjust="spacing" textLength="60.5049" x="27" y="62.292">Extruder</text></g><g class="participant participant-tail" data-participant="extruder"><rect fill="#E2E2F0" height="30.2969" rx="2.5" ry="2.5" style="stroke:#181818;stroke-width:0.5;" width="74.5049" x="20" y="790.1172"/><text fill="#000000" font-family="sans-serif" font-size="14" lengthAdjust="spacing" textLength="60.5049" x="27" y="810.1123">Extruder</text></g><g class="participant participant-head" data-participant="rail"><rect fill="#E2E2F0" height="30.2969" rx="2.5" ry="2.5" style="stroke:#181818;stroke-width:0.5;" width="88.0469" x="173.8306" y="42.2969"/><text fill="#000000" font-family="sans-serif" font-size="14" lengthAdjust="spacing" textLength="74.0469" x="180.8306" y="62.292">Linear Rail</text></g><g class="participant participant-tail" data-participant="rail"><rect fill="#E2E2F0" height="30.2969" rx="2.5" ry="2.5" style="stroke:#181818;stroke-width:0.5;" width="88.0469" x="173.8306" y="790.1172"/><text fill="#000000" font-family="sans-serif" font-size="14" lengthAdjust="spacing" textLength="74.0469" x="180.8306" y="810.1123">Linear Rail</text></g><g class="participant participant-head" data-participant="press"><rect fill="#E2E2F0" height="30.2969" rx="2.5" ry="2.5" style="stroke:#181818;stroke-width:0.5;" width="51.3994" x="348.2339" y="42.2969"/><text fill="#000000" font-family="sans-serif" font-size="14" lengthAdjust="spacing" textLength="37.3994" x="355.2339" y="62.292">Press</text></g><g class="participant participant-tail" data-participant="press"><rect fill="#E2E2F0" height="30.2969" rx="2.5" ry="2.5" style="stroke:#181818;stroke-width:0.5;" width="51.3994" x="348.2339" y="790.1172"/><text fill="#000000" font-family="sans-serif" font-size="14" lengthAdjust="spacing" textLength="37.3994" x="355.2339" y="810.1123">Press</text></g><g class="participant participant-head" data-participant="haul_off"><rect fill="#E2E2F0" height="30.2969" rx="2.5" ry="2.5" style="stroke:#181818;stroke-width:0.5;" width="71.1963" x="489.3433" y="42.2969"/><text fill="#000000" font-family="sans-serif" font-size="14" lengthAdjust="spacing" textLength="57.1963" x="496.3433" y="62.292">Haul Off</text></g><g class="participant participant-tail" data-participant="haul_off"><rect fill="#E2E2F0" height="30.2969" rx="2.5" ry="2.5" style="stroke:#181818;stroke-width:0.5;" width="71.1963" x="489.3433" y="790.1172"/><text fill="#000000" font-family="sans-serif" font-size="14" lengthAdjust="spacing" textLength="57.1963" x="496.3433" y="810.1123">Haul Off</text></g><g class="participant participant-head" data-participant="cutter"><rect fill="#E2E2F0" height="30.2969" rx="2.5" ry="2.5" style="stroke:#181818;stroke-width:0.5;" width="57.9961" x="570.5396" y="42.2969"/><text fill="#000000" font-family="sans-serif" font-size="14" lengthAdjust="spacing" textLength="43.9961" x="577.5396" y="62.292">Cutter</text></g><g class="participant participant-tail" data-participant="cutter"><rect fill="#E2E2F0" height="30.2969" rx="2.5" ry="2.5" style="stroke:#181818;stroke-width:0.5;" width="57.9961" x="570.5396" y="790.1172"/><text fill="#000000" font-family="sans-serif" font-size="14" lengthAdjust="spacing" textLength="43.9961" x="577.5396" y="810.1123">Cutter</text></g><rect fill="#EEEEEE" height="3" style="stroke:#EEEEEE;stroke-width:1;" width="725.3696" x="0" y="104.1602"/><line style="stroke:#000000;stroke-width:1;" x1="0" x2="725.3696" y1="104.1602" y2="104.1602"/><line style="stroke:#000000;stroke-width:1;" x1="0" x2="725.3696" y1="107.1602" y2="107.1602"/><rect fill="#EEEEEE" height="23.1328" style="stroke:#000000;stroke-width:2;" width="110.624" x="307.3728" y="93.5938"/><text fill="#000000" font-family="sans-serif" font-size="13" font-weight="bold" lengthAdjust="spacing" textLength="92.0981" x="313.3728" y="109.6606">Initialization</text><g class="message" data-participant-1="extruder" data-participant-2="rail"><polygon fill="#181818" points="205.854,143.8594,215.854,147.8594,205.854,151.8594,209.854,147.8594" style="stroke:#181818;stroke-width:1;"/><line style="stroke:#181818;stroke-width:1;" x1="57.2524" x2="211.854" y1="147.8594" y2="147.8594"/><text fill="#000000" font-family="sans-serif" font-size="13" lengthAdjust="spacing" textLength="136.6016" x="64.2524" y="142.7935">Check home position</text></g><g class="message" data-participant-1="rail" data-participant-2="rail"><line style="stroke:#181818;stroke-width:1;" x1="217.854" x2="259.854" y1="176.9922" y2="176.9922"/><line style="stroke:#181818;stroke-width:1;" x1="259.854" x2="259.854" y1="176.9922" y2="189.9922"/><line style="stroke:#181818;stroke-width:1;" x1="218.854" x2="259.854" y1="189.9922" y2="189.9922"/><polygon fill="#181818" points="228.854,185.9922,218.854,189.9922,228.854,193.9922,224.854,189.9922" style="stroke:#181818;stroke-width:1;"/><text fill="#000000" font-family="sans-serif" font-size="13" lengthAdjust="spacing" textLength="142.0796" x="224.854" y="171.9263">Move to start position</text></g><g class="message" data-participant-1="press" data-participant-2="press"><line style="stroke:#181818;stroke-width:1;" x1="373.9336" x2="415.9336" y1="219.125" y2="219.125"/><line style="stroke:#181818;stroke-width:1;" x1="415.9336" x2="415.9336" y1="219.125" y2="232.125"/><line style="stroke:#181818;stroke-width:1;" x1="374.9336" x2="415.9336" y1="232.125" y2="232.125"/><polygon fill="#181818" points="384.9336,228.125,374.9336,232.125,384.9336,236.125,380.9336,232.125" style="stroke:#181818;stroke-width:1;"/><text fill="#000000" font-family="sans-serif" font-size="13" lengthAdjust="spacing" textLength="137.0078" x="380.9336" y="214.0591">Ensure open position</text></g><rect fill="#EEEEEE" height="3" style="stroke:#EEEEEE;stroke-width:1;" width="725.3696" x="0" y="260.6914"/><line style="stroke:#000000;stroke-width:1;" x1="0" x2="725.3696" y1="260.6914" y2="260.6914"/><line style="stroke:#000000;stroke-width:1;" x1="0" x2="725.3696" y1="263.6914" y2="263.6914"/><rect fill="#EEEEEE" height="23.1328" style="stroke:#000000;stroke-width:2;" width="142.0386" x="291.6655" y="250.125"/><text fill="#000000" font-family="sans-serif" font-size="13" font-weight="bold" lengthAdjust="spacing" textLength="123.5127" x="297.6655" y="266.1919">Production Cycle</text><path d="M10,290.2578 L199.2251,290.2578 L199.2251,297.3906 L189.2251,307.3906 L10,307.3906 L10,290.2578" fill="#EEEEEE" style="stroke:#000000;stroke-width:1.5;"/><rect fill="none" height="390.4609" style="stroke:#000000;stroke-width:1.5;" width="705.3696" x="10" y="290.2578"/><text fill="#000000" font-family="sans-serif" font-size="13" font-weight="bold" lengthAdjust="spacing" textLength="144.2251" x="25" y="303.3247">Continuous Process</text><g class="message" data-participant-1="extruder" data-participant-2="extruder"><line style="stroke:#181818;stroke-width:1;" x1="57.2524" x2="99.2524" y1="328.5234" y2="328.5234"/><line style="stroke:#181818;stroke-width:1;" x1="99.2524" x2="99.2524" y1="328.5234" y2="341.5234"/><line style="stroke:#181818;stroke-width:1;" x1="58.2524" x2="99.2524" y1="341.5234" y2="341.5234"/><polygon fill="#181818" points="68.2524,337.5234,58.2524,341.5234,68.2524,345.5234,64.2524,341.5234" style="stroke:#181818;stroke-width:1;"/><text fill="#000000" font-family="sans-serif" font-size="13" lengthAdjust="spacing" textLength="123.1064" x="64.2524" y="323.4575">Start material feed</text></g><g class="message" data-participant-1="extruder" data-participant-2="haul_off"><polygon fill="#181818" points="512.9414,366.6563,522.9414,370.6563,512.9414,374.6563,516.9414,370.6563" style="stroke:#181818;stroke-width:1;"/><line style="stroke:#181818;stroke-width:1;" x1="57.2524" x2="518.9414" y1="370.6563" y2="370.6563"/><text fill="#000000" font-family="sans-serif" font-size="13" lengthAdjust="spacing" textLength="122.9478" x="64.2524" y="365.5903">Synchronize speed</text></g><path d="M153.8306,385.6563 L230.4546,385.6563 L230.4546,392.7891 L220.4546,402.7891 L153.8306,402.7891 L153.8306,385.6563" fill="#EEEEEE" style="stroke:#000000;stroke-width:1.5;"/><rect fill="none" height="288.0625" style="stroke:#000000;stroke-width:1.5;" width="551.5391" x="153.8306" y="385.6563"/><text fill="#000000" font-family="sans-serif" font-size="13" font-weight="bold" lengthAdjust="spacing" textLength="31.624" x="168.8306" y="398.7231">loop</text><text fill="#000000" font-family="sans-serif" font-size="11" font-weight="bold" lengthAdjust="spacing" textLength="80.0669" x="245.4546" y="397.8667">[Every cycle]</text><g class="message" data-participant-1="rail" data-participant-2="press"><polygon fill="#181818" points="361.9336,419.9219,371.9336,423.9219,361.9336,427.9219,365.9336,423.9219" style="stroke:#181818;stroke-width:1;"/><line style="stroke:#181818;stroke-width:1;" x1="217.854" x2="367.9336" y1="423.9219" y2="423.9219"/><text fill="#000000" font-family="sans-serif" font-size="13" lengthAdjust="spacing" textLength="120.561" x="224.854" y="418.856">Position 0 reached</text></g><g class="message" data-participant-1="press" data-participant-2="press"><line style="stroke:#181818;stroke-width:1;" x1="373.9336" x2="415.9336" y1="453.0547" y2="453.0547"/><line style="stroke:#181818;stroke-width:1;" x1="415.9336" x2="415.9336" y1="453.0547" y2="466.0547"/><line style="stroke:#181818;stroke-width:1;" x1="374.9336" x2="415.9336" y1="466.0547" y2="466.0547"/><polygon fill="#181818" points="384.9336,462.0547,374.9336,466.0547,384.9336,470.0547,380.9336,466.0547" style="stroke:#181818;stroke-width:1;"/><text fill="#000000" font-family="sans-serif" font-size="13" lengthAdjust="spacing" textLength="72.0269" x="380.9336" y="447.9888">Close mold</text></g><g class="message" data-participant-1="rail" data-participant-2="rail"><line style="stroke:#181818;stroke-width:1;" x1="217.854" x2="259.854" y1="495.1875" y2="495.1875"/><line style="stroke:#181818;stroke-width:1;" x1="259.854" x2="259.854" y1="495.1875" y2="508.1875"/><line style="stroke:#181818;stroke-width:1;" x1="218.854" x2="259.854" y1="508.1875" y2="508.1875"/><polygon fill="#181818" points="228.854,504.1875,218.854,508.1875,228.854,512.1875,224.854,508.1875" style="stroke:#181818;stroke-width:1;"/><text fill="#000000" font-family="sans-serif" font-size="13" lengthAdjust="spacing" textLength="136.2905" x="224.854" y="490.1216">Move to end position</text></g><path d="M163.8306,523.1875 L228.2734,523.1875 L228.2734,530.3203 L218.2734,540.3203 L163.8306,540.3203 L163.8306,523.1875" fill="#EEEEEE" style="stroke:#000000;stroke-width:1.5;"/><rect fill="none" height="143.5313" style="stroke:#000000;stroke-width:1.5;" width="531.5391" x="163.8306" y="523.1875"/><text fill="#000000" font-family="sans-serif" font-size="13" font-weight="bold" lengthAdjust="spacing" textLength="19.4429" x="178.8306" y="536.2544">alt</text><text fill="#000000" font-family="sans-serif" font-size="11" font-weight="bold" lengthAdjust="spacing" textLength="130.9902" x="243.2734" y="535.3979">[Rail at end position]</text><g class="message" data-participant-1="press" data-participant-2="press"><line style="stroke:#181818;stroke-width:1;" x1="373.9336" x2="415.9336" y1="561.4531" y2="561.4531"/><line style="stroke:#181818;stroke-width:1;" x1="415.9336" x2="415.9336" y1="561.4531" y2="574.4531"/><line style="stroke:#181818;stroke-width:1;" x1="374.9336" x2="415.9336" y1="574.4531" y2="574.4531"/><polygon fill="#181818" points="384.9336,570.4531,374.9336,574.4531,384.9336,578.4531,380.9336,574.4531" style="stroke:#181818;stroke-width:1;"/><text fill="#000000" font-family="sans-serif" font-size="13" lengthAdjust="spacing" textLength="71.335" x="380.9336" y="556.3872">Open mold</text></g><g class="message" data-participant-1="rail" data-participant-2="rail"><line style="stroke:#181818;stroke-width:1;" x1="217.854" x2="259.854" y1="603.5859" y2="603.5859"/><line style="stroke:#181818;stroke-width:1;" x1="259.854" x2="259.854" y1="603.5859" y2="616.5859"/><line style="stroke:#181818;stroke-width:1;" x1="218.854" x2="259.854" y1="616.5859" y2="616.5859"/><polygon fill="#181818" points="228.854,612.5859,218.854,616.5859,228.854,620.5859,224.854,616.5859" style="stroke:#181818;stroke-width:1;"/><text fill="#000000" font-family="sans-serif" font-size="13" lengthAdjust="spacing" textLength="95.5449" x="224.854" y="598.52">Return to start</text></g><g class="message" data-participant-1="cutter" data-participant-2="cutter"><line style="stroke:#181818;stroke-width:1;" x1="599.5376" x2="641.5376" y1="645.7188" y2="645.7188"/><line style="stroke:#181818;stroke-width:1;" x1="641.5376" x2="641.5376" y1="645.7188" y2="658.7188"/><line style="stroke:#181818;stroke-width:1;" x1="600.5376" x2="641.5376" y1="658.7188" y2="658.7188"/><polygon fill="#181818" points="610.5376,654.7188,600.5376,658.7188,610.5376,662.7188,606.5376,658.7188" style="stroke:#181818;stroke-width:1;"/><text fill="#000000" font-family="sans-serif" font-size="13" lengthAdjust="spacing" textLength="76.832" x="606.5376" y="640.6528">Cut product</text></g><rect fill="#EEEEEE" height="3" style="stroke:#EEEEEE;stroke-width:1;" width="725.3696" x="0" y="708.2852"/><line style="stroke:#000000;stroke-width:1;" x1="0" x2="725.3696" y1="708.2852" y2="708.2852"/><line style="stroke:#000000;stroke-width:1;" x1="0" x2="725.3696" y1="711.2852" y2="711.2852"/><rect fill="#EEEEEE" height="23.1328" style="stroke:#000000;stroke-width:2;" width="138.0776" x="293.646" y="697.7188"/><text fill="#000000" font-family="sans-serif" font-size="13" font-weight="bold" lengthAdjust="spacing" textLength="119.5518" x="299.646" y="713.7856">Emergency Stop</text><path d="M26,735.8516 L26,775.8516 L629,775.8516 L629,745.8516 L619,735.8516 L26,735.8516" fill="#FEFFDD" style="stroke:#181818;stroke-width:0.5;"/><path d="M619,735.8516 L619,745.8516 L629,745.8516 L619,735.8516" fill="#FEFFDD" style="stroke:#181818;stroke-width:0.5;"/><text fill="#000000" font-family="sans-serif" font-size="13" lengthAdjust="spacing" textLength="223.1328" x="211.7014" y="752.9185">Any component can trigger E-stop</text><text fill="#000000" font-family="sans-serif" font-size="13" lengthAdjust="spacing" textLength="214.8364" x="211.7014" y="768.0513">All movements stop immediately</text><!--SRC=[RP9lQ-Cm3CRVvrE8lTvWhmizE4B63NQiR1_WC8xIc3cMyPzksQS_oOtJoxM6jahyg_JeaP995k75E5G1kgyKSZJau118OupmPEcpQRmAoMZZbKjmLw0Umnse2BWyR94btPiojb21Worn29ozt7c9jfU_LBRmEWpbVkI7FpGCMwJDAIqIT0cRPh-7PsUIKTPygoHDxFTDrGSFFueAs44xelw0aIO4Jz48sPIh2_ARJWY982QkUQ6ALC7EmGuw5tD088_kGeaGjg_FkeXePyq6ivHZeEoX9PUCovHZzRW1Fl_gNECTl1S1a-86kIyO4Fihl1ea-Epq6CYPRuJeAro-B967xeHX1YsAoaivjVNQqs7f0nuXeDBZaaJELV-jfOWmaUslqltd9Bh-ub1brq3PL9O5LBfDtgp-AhPlYjyGy8Of1xSESuEUDqVW9UAECi_xFBmLPKLD_PMF3BYRC1pHwPb7nCRoU1qbtWGsU1tEVLrD-VDFnyRJvCaXxwzMB2cOuv7nxY5oYZDaBJTqmecP2F8Qp3HXRtW1x2p5GShy1G00]--></g></svg>