<svg xmlns="http://www.w3.org/2000/svg" xmlns:xlink="http://www.w3.org/1999/xlink" contentStyleType="text/css" data-diagram-type="DESCRIPTION" height="552px" preserveAspectRatio="none" style="width:1023px;height:552px;" version="1.1" viewBox="0 0 1023 552" width="1023px" zoomAndPan="magnify"><defs/><g><!--cluster Interfaces_diagram--><g class="cluster" data-entity="Interfaces_diagram" data-source-line="4" data-uid="ent0002" id="cluster_Interfaces_diagram"><rect fill="none" height="507" rx="2.5" ry="2.5" style="stroke:#181818;stroke-width:1;" width="1010.07" x="7" y="39"/><rect fill="none" height="10" style="stroke:#181818;stroke-width:1;" width="15" x="997.07" y="44"/><rect fill="none" height="2" style="stroke:#181818;stroke-width:1;" width="4" x="995.07" y="46"/><rect fill="none" height="2" style="stroke:#181818;stroke-width:1;" width="4" x="995.07" y="50"/><text fill="#000000" font-family="sans-serif" font-size="14" font-weight="bold" lengthAdjust="spacing" textLength="152.1611" x="435.9544" y="64.9951">Interfaces_diagram</text></g><!--entity Cylinder--><g class="entity" data-entity="Cylinder" data-source-line="6" data-uid="ent0003" id="entity_Cylinder"><rect fill="#F1F1F1" height="46.2969" rx="2.5" ry="2.5" style="stroke:#181818;stroke-width:0.5;" width="97.9688" x="566.57" y="73.85"/><rect fill="#F1F1F1" height="10" style="stroke:#181818;stroke-width:0.5;" width="15" x="644.5388" y="78.85"/><rect fill="#F1F1F1" height="2" style="stroke:#181818;stroke-width:0.5;" width="4" x="642.5388" y="80.85"/><rect fill="#F1F1F1" height="2" style="stroke:#181818;stroke-width:0.5;" width="4" x="642.5388" y="84.85"/><text fill="#000000" font-family="sans-serif" font-size="14" lengthAdjust="spacing" textLength="57.9688" x="581.57" y="106.8451">Cylinder</text></g><!--entity contact\nsensor--><g class="entity" data-entity="contact.nsensor" data-source-line="7" data-uid="ent0004" id="entity_contact.nsensor"><ellipse cx="401.14" cy="156" fill="#F1F1F1" rx="8" ry="8" style="stroke:#181818;stroke-width:0.5;"/><text fill="#000000" font-family="sans-serif" font-size="14" lengthAdjust="spacing" textLength="52.3906" x="374.9447" y="185.9951">contact</text><text fill="#000000" font-family="sans-serif" font-size="14" lengthAdjust="spacing" textLength="46.3955" x="374.9447" y="202.292">sensor</text></g><!--entity Cylinder\npower--><g class="entity" data-entity="Cylinder.npower" data-source-line="10" data-uid="ent0006" id="entity_Cylinder.npower"><ellipse cx="766.56" cy="140" fill="#F1F1F1" rx="8" ry="8" style="stroke:#181818;stroke-width:0.5;"/><text fill="#000000" font-family="sans-serif" font-size="14" lengthAdjust="spacing" textLength="57.9688" x="737.5756" y="169.9951">Cylinder</text><text fill="#000000" font-family="sans-serif" font-size="14" lengthAdjust="spacing" textLength="43.2715" x="737.5756" y="186.292">power</text></g><!--entity room--><g class="entity" data-entity="room" data-source-line="10" data-uid="ent0007" id="entity_room"><ellipse cx="932.32" cy="319" fill="#F1F1F1" rx="8" ry="8" style="stroke:#181818;stroke-width:0.5;"/><text fill="#000000" font-family="sans-serif" font-size="14" lengthAdjust="spacing" textLength="36.5244" x="914.0578" y="348.9951">room</text></g><!--entity Haul_Off\npower--><g class="entity" data-entity="Haul_Off.npower" data-source-line="11" data-uid="ent0009" id="entity_Haul_Off.npower"><ellipse cx="766.56" cy="400" fill="#F1F1F1" rx="8" ry="8" style="stroke:#181818;stroke-width:0.5;"/><text fill="#000000" font-family="sans-serif" font-size="14" lengthAdjust="spacing" textLength="59.7461" x="736.687" y="429.9951">Haul_Off</text><text fill="#000000" font-family="sans-serif" font-size="14" lengthAdjust="spacing" textLength="43.2715" x="736.687" y="446.292">power</text></g><!--entity shape--><g class="entity" data-entity="shape" data-source-line="14" data-uid="ent0012" id="entity_shape"><ellipse cx="32" cy="197" fill="#F1F1F1" rx="8" ry="8" style="stroke:#181818;stroke-width:0.5;"/><text fill="#000000" font-family="sans-serif" font-size="14" lengthAdjust="spacing" textLength="42.2461" x="10.877" y="226.9951">shape</text></g><!--entity Haul_Off--><g class="entity" data-entity="Haul_Off" data-source-line="17" data-uid="ent0014" id="entity_Haul_Off"><rect fill="#F1F1F1" height="46.2969" rx="2.5" ry="2.5" style="stroke:#181818;stroke-width:0.5;" width="99.7461" x="565.69" y="365.85"/><rect fill="#F1F1F1" height="10" style="stroke:#181818;stroke-width:0.5;" width="15" x="645.4361" y="370.85"/><rect fill="#F1F1F1" height="2" style="stroke:#181818;stroke-width:0.5;" width="4" x="643.4361" y="372.85"/><rect fill="#F1F1F1" height="2" style="stroke:#181818;stroke-width:0.5;" width="4" x="643.4361" y="376.85"/><text fill="#000000" font-family="sans-serif" font-size="14" lengthAdjust="spacing" textLength="59.7461" x="580.69" y="398.8451">Haul_Off</text></g><!--entity Thermoplastic\nposition--><g class="entity" data-entity="Thermoplastic.nposition" data-source-line="18" data-uid="ent0015" id="entity_Thermoplastic.nposition"><ellipse cx="401.14" cy="399" fill="#F1F1F1" rx="8" ry="8" style="stroke:#181818;stroke-width:0.5;"/><text fill="#000000" font-family="sans-serif" font-size="14" lengthAdjust="spacing" textLength="99.7227" x="351.2787" y="428.9951">Thermoplastic</text><text fill="#000000" font-family="sans-serif" font-size="14" lengthAdjust="spacing" textLength="55.4531" x="351.2787" y="445.292">position</text></g><!--entity Thermoplastic--><g class="entity" data-entity="Thermoplastic" data-source-line="20" data-uid="ent0018" id="entity_Thermoplastic"><rect fill="#F1F1F1" height="46.2969" rx="2.5" ry="2.5" style="stroke:#181818;stroke-width:0.5;" width="139.7227" x="101" y="415.85"/><rect fill="#F1F1F1" height="10" style="stroke:#181818;stroke-width:0.5;" width="15" x="220.7227" y="420.85"/><rect fill="#F1F1F1" height="2" style="stroke:#181818;stroke-width:0.5;" width="4" x="218.7227" y="422.85"/><rect fill="#F1F1F1" height="2" style="stroke:#181818;stroke-width:0.5;" width="4" x="218.7227" y="426.85"/><text fill="#000000" font-family="sans-serif" font-size="14" lengthAdjust="spacing" textLength="99.7227" x="116" y="448.8451">Thermoplastic</text></g><!--entity press--><g class="entity" data-entity="press" data-source-line="23" data-uid="ent0020" id="entity_press"><rect fill="#F1F1F1" height="46.2969" rx="2.5" ry="2.5" style="stroke:#181818;stroke-width:0.5;" width="77.8438" x="131.94" y="173.85"/><rect fill="#F1F1F1" height="10" style="stroke:#181818;stroke-width:0.5;" width="15" x="189.7838" y="178.85"/><rect fill="#F1F1F1" height="2" style="stroke:#181818;stroke-width:0.5;" width="4" x="187.7838" y="180.85"/><rect fill="#F1F1F1" height="2" style="stroke:#181818;stroke-width:0.5;" width="4" x="187.7838" y="184.85"/><text fill="#000000" font-family="sans-serif" font-size="14" lengthAdjust="spacing" textLength="37.8438" x="146.94" y="206.8451">press</text></g><!--entity Infrared_lamp--><g class="entity" data-entity="Infrared_lamp" data-source-line="29" data-uid="ent0025" id="entity_Infrared_lamp"><rect fill="#F1F1F1" height="46.2969" rx="2.5" ry="2.5" style="stroke:#181818;stroke-width:0.5;" width="137.5146" x="863.56" y="422.85"/><rect fill="#F1F1F1" height="10" style="stroke:#181818;stroke-width:0.5;" width="15" x="981.0746" y="427.85"/><rect fill="#F1F1F1" height="2" style="stroke:#181818;stroke-width:0.5;" width="4" x="979.0746" y="429.85"/><rect fill="#F1F1F1" height="2" style="stroke:#181818;stroke-width:0.5;" width="4" x="979.0746" y="433.85"/><text fill="#000000" font-family="sans-serif" font-size="14" lengthAdjust="spacing" textLength="97.5146" x="878.56" y="455.8451">Infrared_lamp</text></g><!--entity Extruder--><g class="entity" data-entity="Extruder" data-source-line="33" data-uid="ent0028" id="entity_Extruder"><rect fill="#F1F1F1" height="46.2969" rx="2.5" ry="2.5" style="stroke:#181818;stroke-width:0.5;" width="100.5049" x="565.31" y="446.85"/><rect fill="#F1F1F1" height="10" style="stroke:#181818;stroke-width:0.5;" width="15" x="645.8149" y="451.85"/><rect fill="#F1F1F1" height="2" style="stroke:#181818;stroke-width:0.5;" width="4" x="643.8149" y="453.85"/><rect fill="#F1F1F1" height="2" style="stroke:#181818;stroke-width:0.5;" width="4" x="643.8149" y="457.85"/><text fill="#000000" font-family="sans-serif" font-size="14" lengthAdjust="spacing" textLength="60.5049" x="580.31" y="479.8451">Extruder</text></g><!--entity Rails--><g class="entity" data-entity="Rails" data-source-line="37" data-uid="ent0031" id="entity_Rails"><rect fill="#F1F1F1" height="46.2969" rx="2.5" ry="2.5" style="stroke:#181818;stroke-width:0.5;" width="73.3799" x="578.87" y="154.85"/><rect fill="#F1F1F1" height="10" style="stroke:#181818;stroke-width:0.5;" width="15" x="632.2499" y="159.85"/><rect fill="#F1F1F1" height="2" style="stroke:#181818;stroke-width:0.5;" width="4" x="630.2499" y="161.85"/><rect fill="#F1F1F1" height="2" style="stroke:#181818;stroke-width:0.5;" width="4" x="630.2499" y="165.85"/><text fill="#000000" font-family="sans-serif" font-size="14" lengthAdjust="spacing" textLength="33.3799" x="593.87" y="187.8451">Rails</text></g><!--entity Synchronization_Board--><g class="entity" data-entity="Synchronization_Board" data-source-line="41" data-uid="ent0034" id="entity_Synchronization_Board"><rect fill="#F1F1F1" height="46.2969" rx="2.5" ry="2.5" style="stroke:#181818;stroke-width:0.5;" width="200.8359" x="300.72" y="272.85"/><rect fill="#F1F1F1" height="10" style="stroke:#181818;stroke-width:0.5;" width="15" x="481.5559" y="277.85"/><rect fill="#F1F1F1" height="2" style="stroke:#181818;stroke-width:0.5;" width="4" x="479.5559" y="279.85"/><rect fill="#F1F1F1" height="2" style="stroke:#181818;stroke-width:0.5;" width="4" x="479.5559" y="283.85"/><text fill="#000000" font-family="sans-serif" font-size="14" lengthAdjust="spacing" textLength="160.8359" x="315.72" y="305.8451">Synchronization_Board</text></g><!--entity Safety_Alarm--><g class="entity" data-entity="Safety_Alarm" data-source-line="47" data-uid="ent0040" id="entity_Safety_Alarm"><ellipse cx="615.56" cy="265" fill="#F1F1F1" rx="8" ry="8" style="stroke:#181818;stroke-width:0.5;"/><text fill="#000000" font-family="sans-serif" font-size="14" lengthAdjust="spacing" textLength="93.2217" x="568.9492" y="294.9951">Safety_Alarm</text></g><!--entity energy--><g class="entity" data-entity="energy" data-source-line="51" data-uid="ent0042" id="entity_energy"><ellipse cx="932.32" cy="14" fill="#F1F1F1" rx="8" ry="8" style="stroke:#181818;stroke-width:0.5;"/><text fill="#000000" font-family="sans-serif" font-size="14" lengthAdjust="spacing" textLength="49.0273" x="907.8063" y="43.9951">energy</text></g><!--link contact\nsensor to Cylinder--><g class="link" data-entity-1="contact.nsensor" data-entity-2="Cylinder" data-source-line="7" data-uid="lnk5" id="link_contact.nsensor_Cylinder"><path d="M409.95,153.83 C434.88,146.91 513.93,124.95 566.16,110.44" fill="none" id="contact\nsensor-Cylinder" style="stroke:#181818;stroke-width:1;"/></g><!--link Cylinder\npower to room--><g class="link" data-entity-1="Cylinder.npower" data-entity-2="room" data-source-line="10" data-uid="lnk8" id="link_Cylinder.npower_room"><path d="M775.46,148.63 C803.06,178.8 895.04,279.35 923.11,310.03" fill="none" id="Cylinder\npower-room" style="stroke:#181818;stroke-width:1;"/></g><!--link Haul_Off\npower to room--><g class="link" data-entity-1="Haul_Off.npower" data-entity-2="room" data-source-line="11" data-uid="lnk10" id="link_Haul_Off.npower_room"><path d="M775.46,396.09 C803.06,382.44 895.04,336.94 923.11,323.06" fill="none" id="Haul_Off\npower-room" style="stroke:#181818;stroke-width:1;"/></g><!--link Cylinder to Cylinder\npower--><g class="link" data-entity-1="Cylinder" data-entity-2="Cylinder.npower" data-source-line="13" data-uid="lnk11" id="link_Cylinder_Cylinder.npower"><path d="M664.93,110.96 C698.58,120.67 734.6156,131.0653 751.8256,136.0353" fill="none" id="Cylinder-to-Cylinder\npower" style="stroke:#181818;stroke-width:1;"/><polygon fill="#181818" points="757.59,137.7,750.0531,131.36,752.7863,136.3128,747.8335,139.0459,757.59,137.7" style="stroke:#181818;stroke-width:1;"/></g><!--link Cylinder to shape--><g class="link" data-entity-1="Cylinder" data-entity-2="shape" data-source-line="14" data-uid="lnk13" id="link_Cylinder_shape"><path d="M566.18,94.91 C546.18,94.15 522.76,93.38 501.56,93 C412.31,91.42 388.94,79.42 300.72,93 C208.73,107.16 185.83,117.7 101,156 C78.38,166.21 58.8814,178.9123 46.3714,187.5823" fill="none" id="Cylinder-to-shape" style="stroke:#181818;stroke-width:1;"/><polygon fill="#181818" points="41.44,191,51.1157,189.1611,45.5495,188.1519,46.5587,182.5858,41.44,191" style="stroke:#181818;stroke-width:1;"/></g><!--link Thermoplastic\nposition to Haul_Off--><g class="link" data-entity-1="Thermoplastic.nposition" data-entity-2="Haul_Off" data-source-line="18" data-uid="lnk16" id="link_Thermoplastic.nposition_Haul_Off"><path d="M409.95,398.63 C434.73,397.47 512.98,393.78 565.22,391.32" fill="none" id="Thermoplastic\nposition-Haul_Off" style="stroke:#181818;stroke-width:1;"/></g><!--link Haul_Off to Haul_Off\npower--><g class="link" data-entity-1="Haul_Off" data-entity-2="Haul_Off.npower" data-source-line="19" data-uid="lnk17" id="link_Haul_Off_Haul_Off.npower"><path d="M665.76,392.63 C699.33,395.11 734.6864,397.7168 751.6964,398.9768" fill="none" id="Haul_Off-to-Haul_Off\npower" style="stroke:#181818;stroke-width:1;"/><polygon fill="#181818" points="757.68,399.42,749.0001,394.7661,752.6937,399.0506,748.4091,402.7442,757.68,399.42" style="stroke:#181818;stroke-width:1;"/></g><!--link shape to Thermoplastic--><g class="link" data-entity-1="shape" data-entity-2="Thermoplastic" data-source-line="21" data-uid="lnk19" id="link_shape_Thermoplastic"><path d="M38.37,206.49 C58.13,241.44 127.27,363.69 156.58,415.51" fill="none" id="shape-Thermoplastic" style="stroke:#181818;stroke-width:1;"/></g><!--reverse link shape to press--><g class="link" data-entity-1="shape" data-entity-2="press" data-source-line="24" data-uid="lnk22" id="link_shape_press"><path d="M47.15,197 C64.59,197 100.46,197 131.75,197" fill="none" id="shape-backto-press" style="stroke:#181818;stroke-width:1;"/><polygon fill="#181818" points="41.15,197,50.15,201,46.15,197,50.15,193,41.15,197" style="stroke:#181818;stroke-width:1;"/></g><!--link Thermoplastic to Thermoplastic\nposition--><g class="link" data-entity-1="Thermoplastic" data-entity-2="Thermoplastic.nposition" data-source-line="26" data-uid="lnk23" id="link_Thermoplastic_Thermoplastic.nposition"><path d="M240.97,426.89 C296.35,417.19 362.6601,405.5657 386.3401,401.4157" fill="none" id="Thermoplastic-to-Thermoplastic\nposition" style="stroke:#181818;stroke-width:1;"/><polygon fill="#181818" points="392.25,400.38,382.6946,397.9937,387.3251,401.2431,384.0756,405.8736,392.25,400.38" style="stroke:#181818;stroke-width:1;"/></g><!--link press to contact\nsensor--><g class="link" data-entity-1="press" data-entity-2="contact.nsensor" data-source-line="27" data-uid="lnk24" id="link_press_contact.nsensor"><path d="M210.07,190.14 C265.41,180.2 358.4243,163.4895 386.5743,158.4395" fill="none" id="press-to-contact\nsensor" style="stroke:#181818;stroke-width:1;"/><polygon fill="#181818" points="392.48,157.38,382.9151,155.032,387.5586,158.2629,384.3277,162.9063,392.48,157.38" style="stroke:#181818;stroke-width:1;"/></g><!--link Infrared_lamp to room--><g class="link" data-entity-1="Infrared_lamp" data-entity-2="room" data-source-line="30" data-uid="lnk26" id="link_Infrared_lamp_room"><path d="M932.32,422.68 C932.32,391.23 932.32,365.77 932.32,334.32" fill="none" id="Infrared_lamp-to-room" style="stroke:#181818;stroke-width:1;"/><polygon fill="#181818" points="932.32,328.32,928.32,337.32,932.32,333.32,936.32,337.32,932.32,328.32" style="stroke:#181818;stroke-width:1;"/></g><!--link Thermoplastic to Infrared_lamp--><g class="link" data-entity-1="Thermoplastic" data-entity-2="Infrared_lamp" data-source-line="31" data-uid="lnk27" id="link_Thermoplastic_Infrared_lamp"><path d="M239.81,462.58 C259.29,468.66 280.68,474.7 300.72,479 C461.6,513.55 505.66,525.56 669.56,511 C729.82,505.65 744.85,501.61 803.56,487 C823.22,482.11 838.5686,477.6385 857.7986,471.4485" fill="none" id="Thermoplastic-to-Infrared_lamp" style="stroke:#181818;stroke-width:1;"/><polygon fill="#181818" points="863.51,469.61,853.7173,468.5601,858.7505,471.142,856.1685,476.1753,863.51,469.61" style="stroke:#181818;stroke-width:1;"/></g><!--link Extruder to room--><g class="link" data-entity-1="Extruder" data-entity-2="room" data-source-line="34" data-uid="lnk29" id="link_Extruder_room"><path d="M665.91,478 C705.14,482.04 760.39,482.44 803.56,462 C819.73,454.34 895.0483,363.3219 919.9783,332.8819" fill="none" id="Extruder-to-room" style="stroke:#181818;stroke-width:1;"/><polygon fill="#181818" points="923.78,328.24,914.9829,332.6684,920.6119,332.1083,921.1721,337.7373,923.78,328.24" style="stroke:#181818;stroke-width:1;"/></g><!--link Thermoplastic to Extruder--><g class="link" data-entity-1="Thermoplastic" data-entity-2="Extruder" data-source-line="35" data-uid="lnk30" id="link_Thermoplastic_Extruder"><path d="M241.17,452.67 C260.38,455.96 281.3,459.07 300.72,461 C393.75,470.23 496.9801,471.1697 558.9601,470.7597" fill="none" id="Thermoplastic-to-Extruder" style="stroke:#181818;stroke-width:1;"/><polygon fill="#181818" points="564.96,470.72,555.9337,466.7796,559.9601,470.7531,555.9867,474.7794,564.96,470.72" style="stroke:#181818;stroke-width:1;"/></g><!--link Rails to room--><g class="link" data-entity-1="Rails" data-entity-2="room" data-source-line="38" data-uid="lnk32" id="link_Rails_room"><path d="M652.67,194.17 C725.33,226.73 880.0342,296.0273 917.7642,312.9273" fill="none" id="Rails-to-room" style="stroke:#181818;stroke-width:1;"/><polygon fill="#181818" points="923.24,315.38,916.6615,308.0504,918.6768,313.3361,913.3912,315.3515,923.24,315.38" style="stroke:#181818;stroke-width:1;"/></g><!--link press to Rails--><g class="link" data-entity-1="press" data-entity-2="Rails" data-source-line="39" data-uid="lnk33" id="link_press_Rails"><path d="M210.24,205.19 C272.05,217.1 397.27,235.91 501.56,218 C528.12,213.44 551.1699,205.5396 572.9599,196.5896" fill="none" id="press-to-Rails" style="stroke:#181818;stroke-width:1;"/><polygon fill="#181818" points="578.51,194.31,568.6651,194.0294,573.8849,196.2097,571.7046,201.4295,578.51,194.31" style="stroke:#181818;stroke-width:1;"/></g><!--link Synchronization_Board to Rails--><g class="link" data-entity-1="Synchronization_Board" data-entity-2="Rails" data-source-line="42" data-uid="lnk35" id="link_Synchronization_Board_Rails"><path d="M450.82,272.44 C467.09,264.32 485.23,255 501.56,246 C527.73,231.57 551.4754,217.3433 573.4754,203.7533" fill="none" id="Synchronization_Board-to-Rails" style="stroke:#181818;stroke-width:1;"/><polygon fill="#181818" points="578.58,200.6,568.8209,201.9268,574.3262,203.2277,573.0253,208.733,578.58,200.6" style="stroke:#181818;stroke-width:1;"/></g><!--link Synchronization_Board to Cylinder--><g class="link" data-entity-1="Synchronization_Board" data-entity-2="Cylinder" data-source-line="43" data-uid="lnk36" id="link_Synchronization_Board_Cylinder"><path d="M436.7,272.44 C456.74,257.93 481.83,238.29 501.56,218 C532.8,185.89 530.02,168.82 561.56,137 C567.24,131.27 569.056,129.3792 575.556,124.2892" fill="none" id="Synchronization_Board-to-Cylinder" style="stroke:#181818;stroke-width:1;"/><polygon fill="#181818" points="580.28,120.59,570.7279,122.9895,576.3434,123.6727,575.6602,129.2881,580.28,120.59" style="stroke:#181818;stroke-width:1;"/></g><!--link Synchronization_Board to Haul_Off--><g class="link" data-entity-1="Synchronization_Board" data-entity-2="Haul_Off" data-source-line="44" data-uid="lnk37" id="link_Synchronization_Board_Haul_Off"><path d="M462.3,319.57 C475.3,324.84 488.94,330.51 501.56,336 C522.82,345.25 540.6294,353.4577 560.4594,362.8677" fill="none" id="Synchronization_Board-to-Haul_Off" style="stroke:#181818;stroke-width:1;"/><polygon fill="#181818" points="565.88,365.44,559.4639,357.9678,561.3628,363.2964,556.0342,365.1953,565.88,365.44" style="stroke:#181818;stroke-width:1;"/></g><!--link Synchronization_Board to Extruder--><g class="link" data-entity-1="Synchronization_Board" data-entity-2="Extruder" data-source-line="45" data-uid="lnk38" id="link_Synchronization_Board_Extruder"><path d="M475.97,319.56 C485.1,324.2 493.9,329.64 501.56,336 C539.7,367.65 527.91,393.61 561.56,430 C566.96,435.84 568.599,437.7116 574.979,442.7716" fill="none" id="Synchronization_Board-to-Extruder" style="stroke:#181818;stroke-width:1;"/><polygon fill="#181818" points="579.68,446.5,575.1141,437.7735,575.7625,443.393,570.1429,444.0414,579.68,446.5" style="stroke:#181818;stroke-width:1;"/></g><!--link Synchronization_Board to room--><g class="link" data-entity-1="Synchronization_Board" data-entity-2="room" data-source-line="46" data-uid="lnk39" id="link_Synchronization_Board_room"><path d="M501.98,306.51 C521.71,308.27 542.27,309.89 561.56,311 C706.11,319.35 876.9,319.224 916.98,319.064" fill="none" id="Synchronization_Board-to-room" style="stroke:#181818;stroke-width:1;"/><polygon fill="#181818" points="922.98,319.04,913.9641,315.076,917.98,319.06,913.996,323.0759,922.98,319.04" style="stroke:#181818;stroke-width:1;"/></g><!--link Synchronization_Board to Safety_Alarm--><g class="link" data-entity-1="Synchronization_Board" data-entity-2="Safety_Alarm" data-source-line="47" data-uid="lnk41" id="link_Synchronization_Board_Safety_Alarm"><path d="M501.82,281.45 C544.72,275.19 583.1129,269.5865 600.7229,267.0165" fill="none" id="Synchronization_Board-to-Safety_Alarm" style="stroke:#181818;stroke-width:1;"/><polygon fill="#181818" points="606.66,266.15,597.1767,263.4916,601.7124,266.8721,598.332,271.4078,606.66,266.15" style="stroke:#181818;stroke-width:1;"/></g><!--link room to energy--><g class="link" data-entity-1="room" data-entity-2="energy" data-source-line="51" data-uid="lnk43" id="link_room_energy"><path d="M932.32,309.77 C932.32,214.26 932.32,124.75 932.32,29.24" fill="none" id="room-to-energy" style="stroke:#181818;stroke-width:1;"/><polygon fill="#181818" points="932.32,23.24,928.32,32.24,932.32,28.24,936.32,32.24,932.32,23.24" style="stroke:#181818;stroke-width:1;"/></g><!--SRC=[VPB1JiCm38RlUOfe9pZq5P1WGc8d9CQDeSgawHejTIed4nJ4kvCcRTPiAprKIVpvzsydzg2m0uAMVu0uxCaSiLeRROWx0hG-9D4nBMl7dU6azetZbI8fd3B8c31jPz0ZV8DEKWr2sh9Ii1yKVnZtN_YzhNkji9Bq7hOtjtmb33eGReTMeZMquaN19uej9KqdE-pCfun9P4oRW2SuwlAvhgy10PeKVE3kKkyIiGrqCZOIJKqLJgPU6qcjwJHOfyIWPDKmdL1xeWCyRMBjSwjHFXDBDOABGIyBp-RRaRGsuc792vtCXzCiCHfOyZrN6RZpcne7iS6Q_FEeIWrj5qjdHzpdfhkvA9-XiqOUlnmTqvrFks1aMInn8JmglO3IuqZ2CjSuzHU2Oq_R7aL31jKt3ACe7mnG5JMkXcO2_pFfPV-FPSzb6SlQNSPIiyl85chf-l9U0tcKiLys9F62V4oYf7t_1m00]--></g></svg>