<svg xmlns="http://www.w3.org/2000/svg" xmlns:xlink="http://www.w3.org/1999/xlink" contentStyleType="text/css" data-diagram-type="ACTIVITY" height="565px" preserveAspectRatio="none" style="width:343px;height:565px;background:#FFFFFF;" version="1.1" viewBox="0 0 343 565" width="343px" zoomAndPan="magnify"><defs/><g><ellipse cx="172.49" cy="16" fill="#222222" rx="10" ry="10" style="stroke:#222222;stroke-width:1;"/><rect fill="#F1F1F1" height="61.9063" rx="12.5" ry="12.5" style="stroke:#181818;stroke-width:0.5;" width="330.9863" x="7" y="66"/><text fill="#000000" font-family="sans-serif" font-size="12" lengthAdjust="spacing" textLength="88.2012" x="17" y="87.1387">Main Function:</text><text fill="#000000" font-family="sans-serif" font-size="12" lengthAdjust="spacing" textLength="310.9863" x="17" y="101.1074">CONTINUOUSLY SHAPE RECYCLED THERMOPLASTIC</text><text fill="#000000" font-family="sans-serif" font-size="12" lengthAdjust="spacing" textLength="248.2559" x="17" y="115.0762">COMPOSITE INTO SEMI-FINISHED SHEETS</text><rect fill="#F1F1F1" height="33.9688" rx="12.5" ry="12.5" style="stroke:#181818;stroke-width:0.5;" width="137.1875" x="103.9" y="167.91"/><text fill="#000000" font-family="sans-serif" font-size="12" lengthAdjust="spacing" textLength="117.1875" x="113.9" y="189.0487">Guide Extrude Flow</text><rect fill="#F1F1F1" height="33.9688" rx="12.5" ry="12.5" style="stroke:#181818;stroke-width:0.5;" width="107.334" x="118.83" y="241.88"/><text fill="#000000" font-family="sans-serif" font-size="12" lengthAdjust="spacing" textLength="87.334" x="128.83" y="263.0187">Change Shape</text><rect fill="#F1F1F1" height="33.9688" rx="12.5" ry="12.5" style="stroke:#181818;stroke-width:0.5;" width="178.8887" x="83.05" y="315.84"/><text fill="#000000" font-family="sans-serif" font-size="12" lengthAdjust="spacing" textLength="158.8887" x="93.05" y="336.9787">Move Semi-Finished Sheet</text><rect fill="#F1F1F1" height="33.9688" rx="12.5" ry="12.5" style="stroke:#181818;stroke-width:0.5;" width="145.7715" x="99.61" y="389.81"/><text fill="#000000" font-family="sans-serif" font-size="12" lengthAdjust="spacing" textLength="125.7715" x="109.61" y="410.9487">Temperature Control</text><rect fill="#F1F1F1" height="33.9688" rx="12.5" ry="12.5" style="stroke:#181818;stroke-width:0.5;" width="112.2031" x="116.39" y="463.78"/><text fill="#000000" font-family="sans-serif" font-size="12" lengthAdjust="spacing" textLength="92.2031" x="126.39" y="484.9187">Control System</text><ellipse cx="172.49" cy="548.75" fill="none" rx="11" ry="11" style="stroke:#222222;stroke-width:1.5;"/><ellipse cx="172.49" cy="548.75" fill="#222222" rx="6" ry="6" style="stroke:#222222;stroke-width:1;"/><!--link start to Main Function:?CONTINUOUSLY SHAPE RECYCLED THERMOPLASTIC?COMPOSITE INTO SEMI-FINISHED SHEETS--><g class="link" data-entity-1="start" data-entity-2="Main Function..CONTINUOUSLY SHAPE RECYCLED THERMOPLASTIC.COMPOSITE INTO SEMI-FINISHED SHEETS" data-source-line="3" data-uid="lnk4" id="link_start_Main Function..CONTINUOUSLY SHAPE RECYCLED THERMOPLASTIC.COMPOSITE INTO SEMI-FINISHED SHEETS"><path d="M172.49,26.37 C172.49,36.09 172.49,45.81 172.49,59.85" fill="none" id="start-to-Main Function:&#57600;CONTINUOUSLY SHAPE RECYCLED THERMOPLASTIC&#57600;COMPOSITE INTO SEMI-FINISHED SHEETS" style="stroke:#181818;stroke-width:1;"/><polygon fill="#181818" points="172.49,65.85,176.49,56.85,172.49,60.85,168.49,56.85,172.49,65.85" style="stroke:#181818;stroke-width:1;"/></g><!--link Main Function:?CONTINUOUSLY SHAPE RECYCLED THERMOPLASTIC?COMPOSITE INTO SEMI-FINISHED SHEETS to Guide Extrude Flow--><g class="link" data-entity-1="Main Function..CONTINUOUSLY SHAPE RECYCLED THERMOPLASTIC.COMPOSITE INTO SEMI-FINISHED SHEETS" data-entity-2="Guide Extrude Flow" data-source-line="7" data-uid="lnk6" id="link_Main Function..CONTINUOUSLY SHAPE RECYCLED THERMOPLASTIC.COMPOSITE INTO SEMI-FINISHED SHEETS_Guide Extrude Flow"><path d="M172.49,128.01 C172.49,141.37 172.49,150.56 172.49,161.73" fill="none" id="Main Function:&#57600;CONTINUOUSLY SHAPE RECYCLED THERMOPLASTIC&#57600;COMPOSITE INTO SEMI-FINISHED SHEETS-to-Guide Extrude Flow" style="stroke:#181818;stroke-width:1;"/><polygon fill="#181818" points="172.49,167.73,176.49,158.73,172.49,162.73,168.49,158.73,172.49,167.73" style="stroke:#181818;stroke-width:1;"/></g><!--link Guide Extrude Flow to Change Shape--><g class="link" data-entity-1="Guide Extrude Flow" data-entity-2="Change Shape" data-source-line="9" data-uid="lnk8" id="link_Guide Extrude Flow_Change Shape"><path d="M172.49,202.22 C172.49,214 172.49,223.83 172.49,235.59" fill="none" id="Guide Extrude Flow-to-Change Shape" style="stroke:#181818;stroke-width:1;"/><polygon fill="#181818" points="172.49,241.59,176.49,232.59,172.49,236.59,168.49,232.59,172.49,241.59" style="stroke:#181818;stroke-width:1;"/></g><!--link Change Shape to Move Semi-Finished Sheet--><g class="link" data-entity-1="Change Shape" data-entity-2="Move Semi-Finished Sheet" data-source-line="11" data-uid="lnk10" id="link_Change Shape_Move Semi-Finished Sheet"><path d="M172.49,276.19 C172.49,287.97 172.49,297.8 172.49,309.56" fill="none" id="Change Shape-to-Move Semi-Finished Sheet" style="stroke:#181818;stroke-width:1;"/><polygon fill="#181818" points="172.49,315.56,176.49,306.56,172.49,310.56,168.49,306.56,172.49,315.56" style="stroke:#181818;stroke-width:1;"/></g><!--link Move Semi-Finished Sheet to Temperature Control--><g class="link" data-entity-1="Move Semi-Finished Sheet" data-entity-2="Temperature Control" data-source-line="13" data-uid="lnk12" id="link_Move Semi-Finished Sheet_Temperature Control"><path d="M172.49,350.16 C172.49,361.94 172.49,371.77 172.49,383.53" fill="none" id="Move Semi-Finished Sheet-to-Temperature Control" style="stroke:#181818;stroke-width:1;"/><polygon fill="#181818" points="172.49,389.53,176.49,380.53,172.49,384.53,168.49,380.53,172.49,389.53" style="stroke:#181818;stroke-width:1;"/></g><!--link Temperature Control to Control System--><g class="link" data-entity-1="Temperature Control" data-entity-2="Control System" data-source-line="15" data-uid="lnk14" id="link_Temperature Control_Control System"><path d="M172.49,424.13 C172.49,435.91 172.49,445.74 172.49,457.5" fill="none" id="Temperature Control-to-Control System" style="stroke:#181818;stroke-width:1;"/><polygon fill="#181818" points="172.49,463.5,176.49,454.5,172.49,458.5,168.49,454.5,172.49,463.5" style="stroke:#181818;stroke-width:1;"/></g><!--link Control System to end--><g class="link" data-entity-1="Control System" data-entity-2="end" data-source-line="17" data-uid="lnk16" id="link_Control System_end"><path d="M172.49,498.08 C172.49,510.44 172.49,521.05 172.49,531.58" fill="none" id="Control System-to-end" style="stroke:#181818;stroke-width:1;"/><polygon fill="#181818" points="172.49,537.58,176.49,528.58,172.49,532.58,168.49,528.58,172.49,537.58" style="stroke:#181818;stroke-width:1;"/></g><!--SRC=[FO_FJiCm38VlUGfh9q3g2-o0L8MKHcgQQiaEEqRKMoFofqeJ66zF19IBBN_VJxQylTkmccGyp7WrnMMDzzmwUmiUGmQ7rqp8mzCZDCqp78In0ReIthADuKYe73KVp_AiXWkelfqOd1Yzq86zWExPISXfQ9Ncj2R591NN3FYe9IWcUDFnaQk-HcjXMXq8-RdnMkoCmEuvbTex5pztGnSJRWXgCIlkJCIFIj3RfhF1RWlErIFctMlqAoQJIqAWCUGKtV-wtn7KrvRH_z7wwZS0]--></g></svg>